<svg width="413" height="100%" viewBox="0 0 1200 83" xmlns="http://www.w3.org/2000/svg"><g clip-path="url(#clip0_1102_5194)"><path d="M145.666 4.58329L126.75 59.1666C125.25 63.5 121.166 66.4166 116.583 66.4166H43.4164C38.8331 66.4166 34.7498 63.5 33.2498 59.1666L14.3331 4.58329C13.9998 3.58329 13.0831 2.91663 11.9998 2.91663H3.16643C1.49976 2.91663 0.333093 4.58329 0.833093 6.16663L24.9998 75.9166C25.7498 78.0833 27.7498 79.5 30.0831 79.5H129.833C132.083 79.5 134.166 78.0833 134.916 75.9166L159.083 6.16663C159.666 4.58329 158.416 2.91663 156.75 2.91663H148C147 2.91663 146.083 3.58329 145.666 4.58329Z" fill="#005DAB"></path><path d="M46.3333 59.9166H113.667C117.25 59.9166 120.417 57.6666 121.667 54.25L138.333 6.16663C138.917 4.58329 137.667 2.91663 136 2.91663H127.25C126.167 2.91663 125.25 3.58329 124.917 4.58329L112.75 39.5833C111.25 43.9166 107.167 46.8333 102.583 46.8333H57.4166C52.8333 46.8333 48.7499 43.9166 47.2499 39.5833L35.1666 4.58329C34.8333 3.58329 33.9166 2.91663 32.8333 2.91663H23.9999C22.3333 2.91663 21.1666 4.58329 21.6666 6.16663L38.3333 54.25C39.5833 57.6666 42.7499 59.9166 46.3333 59.9166Z" fill="#005DAB"></path><path d="M60.4999 40.1666H99.5832C103.167 40.1666 106.333 37.9166 107.583 34.5L117.417 6.16663C118 4.58329 116.75 2.91663 115.083 2.91663H106.333C105.25 2.91663 104.333 3.58329 104 4.58329L98.5833 20.3333C97.1666 24.3333 93.4166 27 89.1666 27H70.9999C66.7499 27 62.9999 24.3333 61.5833 20.3333L56.0833 4.58329C55.7499 3.58329 54.8333 2.91663 53.7499 2.91663H44.9999C43.3333 2.91663 42.1666 4.58329 42.6666 6.16663L52.4999 34.5C53.6666 37.9166 56.8333 40.1666 60.4999 40.1666Z" fill="#005DAB"></path></g><g clip-path="url(#clip1_1102_5194)"><path d="M719.667 23.4166H701.417V80.6666H719.667V23.4166Z" fill="#005DAB"></path><path d="M693.583 41.9167C693.583 26.1667 680.833 22.0834 667.583 22.0834C661.25 22.0834 654.833 24.3334 649.833 27.0834C644.917 30 641.5 34.6667 641.167 42H658.25C659.083 37.25 662.333 35 667.333 35C671.083 35 676.167 36.5834 676.167 40.8334C676.167 44.25 674.417 44 671.333 44.5834C658.667 47.1667 638.917 47.1667 638.917 65.25C638.917 76.75 647.25 82.0834 657.917 82.0834C664.583 82.0834 671.583 80.1667 676.25 75.25C676.5 77.0834 676.667 78.8334 677.333 80.5H695.667C693.5 76.0834 693.5 70.9167 693.5 66.25V41.9167H693.583ZM664.833 69.1667C660.75 69.1667 657.25 68.5 657.25 64C657.25 59.5834 660.667 58.5 664.75 57.5C668.75 56.4167 672.25 55.5 674.833 53.9167C675.25 65.4167 673.5 69.1667 664.833 69.1667Z" fill="#005DAB"></path><path d="M763 22.3334C756.333 22.3334 748.833 24.3334 745.5 30H745.25V23.9167H727.583V80.5834H745.833V50.25C745.833 44.1667 748.833 38.3334 755.667 38.3334C765.667 38.3334 764.75 46.0834 764.75 53.6667V80.5834H783V44.8334C783 36.8334 781.5 22.3334 763 22.3334Z" fill="#005DAB"></path><path d="M819.417 20.9167C803 21.0834 789.333 32.9167 789.333 50C789.333 68.6667 801.25 82.1667 819.417 82.1667C831.833 82.1667 844.5 73.9167 847.833 61H829.167C827.417 65.0834 823.833 67.75 819.417 67.75C813.583 67.75 810 63.8334 808.917 57.1667H848.917C852.583 36 839.5 20.6667 819.417 20.9167ZM808.75 45.25C809.833 38.5 813.167 33.8334 819.583 33.8334C825.667 33.8334 829.75 39.1667 830.333 45.25H808.75Z" fill="#005DAB"></path><path d="M719.667 4.08337H701.417V18H719.667V4.08337Z" fill="#005DAB"></path><path d="M624.583 10.1666H606.333V24.8333H597.083V36.6666H606.333V62.4166C606.333 77.5833 610.333 82.0833 625.833 82.0833C629.167 82.0833 632.5 81.6666 635.833 81.5833V68.1666C634.25 68.1666 632.583 68.4166 631.083 68.4166C627.083 68.4166 624.5 67.4166 624.5 63.0833V36.6666H635.75V24.9166H624.5V10.1666H624.583Z" fill="#005DAB"></path><path d="M575.083 22.3334C568.417 22.3334 560.917 24.3334 557.583 30H557.333V23.9167H539.583V80.5834H557.833V50.25C557.833 44.1667 560.833 38.3334 567.667 38.3334C577.667 38.3334 576.75 46.0834 576.75 53.6667V80.5834H595V44.8334C595.167 36.8334 593.667 22.3334 575.083 22.3334Z" fill="#005DAB"></path><path d="M352 20.9167C335.583 21.0834 321.917 32.9167 321.917 50C321.917 68.6667 333.833 82.1667 352 82.1667C364.417 82.1667 377.167 73.9167 380.417 61H361.75C360 65.0834 356.417 67.75 352 67.75C346.167 67.75 342.583 63.8334 341.5 57.1667H381.5C385.083 36 372 20.6667 352 20.9167ZM341.25 45.25C342.333 38.5 345.667 33.8334 352.083 33.8334C358.167 33.8334 362.25 39.1667 362.833 45.25H341.25Z" fill="#005DAB"></path><path d="M295.5 20.3333C288.833 20.3333 281.333 23.3333 278.5 29H278.25V4H264.917H258.75H199.25V21.1667H222.083V80.6667H242.083V21.0833H258.75V80.5833H278.333V50.25C278.333 44.1667 280.167 35.5833 287 35.5833C297 35.5833 296.083 46.0833 296.083 53.6667V80.5833H315.5V44.8333C315.583 36.8333 314.083 20.3333 295.5 20.3333Z" fill="#005DAB"></path><path d="M504.083 21C486.833 21 474.75 33.75 474.75 50.5C474.75 67.25 486.75 82.4167 504.083 82.4167C521.333 82.4167 533.5 68 533.5 51.25C533.5 34.5833 521.333 21 504.083 21ZM504.083 66.1667C495.583 66.1667 493 58.5833 493 51.5C493 44.4167 495.583 36.9167 504.083 36.9167C512.583 36.9167 515.25 44.4167 515.25 51.5C515.25 58.5833 512.583 66.1667 504.083 66.1667Z" fill="#005DAB"></path><path d="M436.083 65C426.417 65 419.25 53.6667 419.25 42.25C419.25 30.8333 424.167 18.1667 437.083 18.1667C445.417 18.1667 448.917 21.0833 450 28.8333H468.583C468 10.3333 454 0 437.5 0C414.25 0 399.25 18.9167 399.25 41.0833C399.25 63.3333 414.25 82.1667 437.5 82.1667C456.917 82.1667 469.75 66.1667 469.75 50.8333H449.75C449 59.6667 445.417 65 436.083 65Z" fill="#005DAB"></path><path d="M1041.58 21C1024.33 21 1012.25 33.75 1012.25 50.5C1012.25 67.25 1024.25 82.4167 1041.58 82.4167C1058.83 82.4167 1071 68 1071 51.25C1071 34.5833 1058.83 21 1041.58 21ZM1041.58 66.1667C1033.08 66.1667 1030.5 58.5833 1030.5 51.5C1030.5 44.4167 1033.08 36.9167 1041.58 36.9167C1050.08 36.9167 1052.75 44.4167 1052.75 51.5C1052.75 58.5833 1050.08 66.1667 1041.58 66.1667Z" fill="#005DAB"></path><path d="M1143.67 20.9167C1127.25 21.0834 1113.58 32.9167 1113.58 50C1113.58 68.6667 1125.5 82.1667 1143.67 82.1667C1156.08 82.1667 1168.83 73.9167 1172.08 61H1153.42C1151.67 65.0834 1148.08 67.75 1143.67 67.75C1137.83 67.75 1134.25 63.8334 1133.17 57.1667H1173.17C1176.75 36 1163.67 20.6667 1143.67 20.9167ZM1132.92 45.25C1134 38.5 1137.33 33.8334 1143.75 33.8334C1149.83 33.8334 1153.92 39.1667 1154.5 45.25H1132.92Z" fill="#005DAB"></path><path d="M1190.5 17.5C1190.5 14.5834 1188.67 13.5834 1185.25 13.5834H1180.25V26.9167H1182.92V21.25H1184.58L1187.83 26.9167H1190.58L1187 21.0834C1189 20.9167 1190.5 20 1190.5 17.5ZM1182.92 19.1667V15.6667H1185.17C1186.42 15.6667 1187.92 15.9167 1187.92 17.3334C1187.92 18.9167 1186.83 19.1667 1185.33 19.1667H1182.92Z" fill="#005DAB"></path><path d="M1185.5 6.91675C1177.67 6.91675 1171.75 12.6667 1171.75 20.2501C1171.75 27.9167 1177.67 33.6667 1185.5 33.6667C1193.33 33.6667 1199.25 27.9167 1199.25 20.2501C1199.25 12.6667 1193.33 6.91675 1185.5 6.91675ZM1185.5 32.0001C1179.67 32.0001 1173.5 27.9167 1173.5 20.3334C1173.5 12.8334 1179.67 8.75008 1185.5 8.75008C1191.33 8.75008 1197.5 12.8334 1197.5 20.3334C1197.5 27.9167 1191.33 32.0001 1185.5 32.0001Z" fill="#005DAB"></path><path d="M873.666 31.9167H873.416V23.9167H855.667V80.5834H873.916V52.5834C873.916 46.5 877.166 44.25 883.5 40.3334C890.833 39.3334 891.083 39.8334 891.083 39.8334V22.3334C884.5 22.3334 877 26.25 873.666 31.9167Z" fill="#005DAB"></path><path d="M1095.33 31.9167H1095.08V23.9167H1077.33V80.5834H1095.58V52.5834C1095.58 46.5 1098.83 44.25 1105.17 40.3334C1112.5 39.3334 1112.75 39.8334 1112.75 39.8334V22.3334C1106.17 22.3334 1098.67 26.25 1095.33 31.9167Z" fill="#005DAB"></path><path d="M999.417 10.1666H981.167V24.8333H973.167C971.833 8.99992 957.583 0.583252 943 0.583252C928.583 0.583252 912.167 8.91658 912.167 25.6666C912.167 39.7499 924.25 45.9999 935.167 49.1666C946.25 52.2499 956.167 52.1666 956.167 58.9999C956.167 64.6666 950.917 66.8333 944.917 66.8333C936.417 66.8333 930.833 63.9166 930.417 54.9166H910.417C910.5 74.5833 926.083 82.2499 943.667 82.2499C960.5 82.2499 976.25 75.9999 976.25 56.5833C976.25 42.7499 965.833 37.5833 954.833 34.4999C943.667 31.4166 930.667 30.3333 930.667 24.4166C930.667 19.3333 938 16.6666 942.25 16.6666C948.333 16.6666 954.917 20.0833 954.583 27.0833H971.833V36.6666H981.083V62.4166C981.083 77.5833 985.083 82.0833 1000.58 82.0833C1003.92 82.0833 1007.25 81.6666 1010.58 81.5833V68.1666C1009 68.1666 1007.33 68.4166 1005.83 68.4166C1001.83 68.4166 999.25 67.4166 999.25 63.0833V36.6666H1010.5V24.9166H999.25V10.1666H999.417Z" fill="#005DAB"></path></g><defs><clipPath id="clip0_1102_5194"><rect width="158.5" height="76.6667" fill="white" transform="translate(0.75 2.91663)"></rect></clipPath><clipPath id="clip1_1102_5194"><rect width="1000" height="82.5" fill="white" transform="translate(199.25)"></rect></clipPath></defs></svg>