<?xml version="1.0" encoding="UTF-8"?>
<svg width="24px" height="24px" viewBox="0 0 24 24" version="1.1" xmlns="http://www.w3.org/2000/svg" xmlns:xlink="http://www.w3.org/1999/xlink">
    <title>i-social-facebook</title>
    <g id="Symbols" stroke="none" stroke-width="1" fill="none" fill-rule="evenodd">
        <g id="logo-facebook" transform="translate(2.000000, 2.000000)">
            <rect id="Rectangle" x="0.000696399176" y="0" width="19.9993036" height="20"></rect>
            <g id="Group" transform="translate(0.000000, 0.060943)" fill="currentColor" fill-rule="nonzero">
                <path d="M20,9.99905695 C19.999384,4.67950497 15.8344126,0.291509717 10.5222971,0.0138466642 C5.21018153,-0.263816388 0.610467639,3.66605079 0.0553052557,8.95655236 C-0.499857128,14.2470539 3.18387074,19.0462102 8.43790261,19.8773903 L8.43790261,12.8898903 L5.89882435,12.8898903 L5.89882435,9.99905695 L8.43790261,9.99905695 L8.43790261,7.79572361 C8.43790261,5.28989028 9.93118394,3.90489028 12.2144378,3.90489028 C12.9645344,3.91564893 13.7128619,3.98082003 14.4535265,4.09989028 L14.4535265,6.56155695 L13.1919037,6.56155695 C12.4010616,6.45657332 11.6747825,7.01239949 11.5694602,7.80322361 C11.5551655,7.90957591 11.5529292,8.01720262 11.5627938,8.12405695 L11.5627938,9.99905695 L14.3335306,9.99905695 L13.8902127,12.8898903 L11.5569607,12.8898903 L11.5569607,19.8773903 C16.4187509,19.1112052 20,14.921017 20,9.99905695 Z" id="Path"></path>
            </g>
        </g>
    </g>
</svg>
