<?xml version="1.0" encoding="UTF-8"?>
<svg width="24px" height="24px" viewBox="0 0 24 24" version="1.1" xmlns="http://www.w3.org/2000/svg" xmlns:xlink="http://www.w3.org/1999/xlink">
    <title>i-social-instagram</title>
    <g id="Symbols" stroke="none" stroke-width="1" fill="none" fill-rule="evenodd">
        <g id="logo-instagram" transform="translate(2.000000, 2.000000)">
            <rect id="Rectangle" x="0" y="0" width="20" height="20"></rect>
            <g id="Group" transform="translate(0.833333, 0.833333)" fill="currentColor" fill-rule="nonzero">
                <path d="M9.16666667,1.65166667 C11.6141667,1.65166667 11.9041667,1.66083333 12.8708333,1.705 C13.4519845,1.71176997 14.0276254,1.81861026 14.5725,2.02083333 C14.9708294,2.16758772 15.3310921,2.40197203 15.6266667,2.70666667 C15.9313613,3.00224127 16.1657456,3.36250392 16.3125,3.76083333 C16.5147231,4.30570796 16.6215634,4.88134882 16.6283333,5.4625 C16.6725,6.42916667 16.6816667,6.71916667 16.6816667,9.16666667 C16.6816667,11.6141667 16.6725,11.9041667 16.6283333,12.8708333 C16.6215634,13.4519845 16.5147231,14.0276254 16.3125,14.5725 C16.0040107,15.3720424 15.3720424,16.0040107 14.5725,16.3125 C14.0276254,16.5147231 13.4519845,16.6215634 12.8708333,16.6283333 C11.9041667,16.6725 11.6141667,16.6816667 9.16666667,16.6816667 C6.71916667,16.6816667 6.42916667,16.6725 5.4625,16.6283333 C4.88134882,16.6215634 4.30570796,16.5147231 3.76083333,16.3125 C3.36250392,16.1657456 3.00224127,15.9313613 2.70666667,15.6266667 C2.40197203,15.3310921 2.16758772,14.9708294 2.02083333,14.5725 C1.81861026,14.0276254 1.71176997,13.4519845 1.705,12.8708333 C1.66083333,11.9041667 1.65166667,11.6141667 1.65166667,9.16666667 C1.65166667,6.71916667 1.66083333,6.42916667 1.705,5.4625 C1.71176997,4.88134882 1.81861026,4.30570796 2.02083333,3.76083333 C2.16758772,3.36250392 2.40197203,3.00224127 2.70666667,2.70666667 C3.00224127,2.40197203 3.36250392,2.16758772 3.76083333,2.02083333 C4.30570796,1.81861026 4.88134882,1.71176997 5.4625,1.705 C6.42916667,1.66083333 6.71916667,1.65166667 9.16666667,1.65166667 M9.16666667,0 C6.6775,0 6.365,0.0108333333 5.3875,0.055 C4.62715348,0.0707134451 3.87491608,0.214680976 3.1625,0.480833333 C1.92993148,0.958005384 0.956091181,1.93335879 0.480833333,3.16666667 C0.214680976,3.87908275 0.0707134451,4.63132014 0.055,5.39166667 C0.0108333333,6.365 0,6.6775 0,9.16666667 C0,11.6558333 0.0108333333,11.9683333 0.055,12.9458333 C0.0707134451,13.7061799 0.214680976,14.4584173 0.480833333,15.1708333 C0.958005384,16.4034019 1.93335879,17.3772422 3.16666667,17.8525 C3.87908275,18.1186524 4.63132014,18.2626199 5.39166667,18.2783333 C6.365,18.3225 6.6775,18.3333333 9.16666667,18.3333333 C11.6558333,18.3333333 11.9683333,18.3225 12.9458333,18.2783333 C13.7061799,18.2626199 14.4584173,18.1186524 15.1708333,17.8525 C16.4034019,17.3753279 17.3772422,16.3999745 17.8525,15.1666667 C18.1186524,14.4542506 18.2626199,13.7020132 18.2783333,12.9416667 C18.3225,11.9683333 18.3333333,11.6558333 18.3333333,9.16666667 C18.3333333,6.6775 18.3225,6.365 18.2783333,5.3875 C18.2626199,4.62715348 18.1186524,3.87491608 17.8525,3.1625 C17.3753279,1.92993148 16.3999745,0.956091181 15.1666667,0.480833333 C14.4542506,0.214680976 13.7020132,0.0707134451 12.9416667,0.055 C11.9683333,0.0108333333 11.6558333,0 9.16666667,0 Z" id="Shape"></path>
                <path d="M9.16666667,4.45916667 C6.56678621,4.45916667 4.45916667,6.56678621 4.45916667,9.16666667 C4.45916667,11.7665471 6.56678621,13.8741667 9.16666667,13.8741667 C11.7665471,13.8741667 13.8741667,11.7665471 13.8741667,9.16666667 C13.8741667,7.91816004 13.3781993,6.720789 12.4953718,5.83796149 C11.6125443,4.95513399 10.4151733,4.45916667 9.16666667,4.45916667 Z M9.16666667,12.2225 C7.47897652,12.2225 6.11083333,10.8543568 6.11083333,9.16666667 C6.11083333,7.47897652 7.47897652,6.11083333 9.16666667,6.11083333 C10.8543568,6.11083333 12.2225,7.47897652 12.2225,9.16666667 C12.2225,10.8543568 10.8543568,12.2225 9.16666667,12.2225 L9.16666667,12.2225 Z" id="Shape"></path>
                <circle id="Oval" cx="14.06" cy="4.27333333" r="1.1"></circle>
            </g>
        </g>
    </g>
</svg>
