<?xml version="1.0" encoding="UTF-8"?>
<svg width="24px" height="24px" viewBox="0 0 24 24" version="1.1" xmlns="http://www.w3.org/2000/svg" xmlns:xlink="http://www.w3.org/1999/xlink">
    <title>i-social-snapchat</title>
    <g id="Symbols" stroke="none" stroke-width="1" fill="none" fill-rule="evenodd">
        <g id="logo-snapchat" transform="translate(2.000000, 2.000000)">
            <rect id="Rectangle" x="0.000702947222" y="0" width="19.998769" height="20"></rect>
            <g id="Group" transform="translate(0.000000, 0.600365)" fill="currentColor" fill-rule="nonzero">
                <path d="M10.1934089,0.000467980581 L10.1442452,0.000467980581 L9.79759991,0.000467980581 C7.65954908,-0.0250044382 5.71390382,1.23179959 4.85790397,3.19130131 C4.41376464,4.18630131 4.52459115,5.87630131 4.60791935,7.23463465 C4.61791874,7.39463465 4.6287514,7.56130131 4.63791751,7.72130131 C4.51745244,7.78187055 4.3834778,7.81056068 4.24877479,7.80463465 C3.92915136,7.78933529 3.61655213,7.7054967 3.33216455,7.55880131 C3.23241466,7.51402021 3.1240058,7.49182491 3.01468409,7.49380131 C2.57967233,7.47890091 2.18571831,7.74921189 2.04307723,8.16046798 C1.98808062,8.44880131 2.11723933,8.86963465 3.04301568,9.23546798 C3.12634388,9.26796798 3.22717101,9.29963465 3.33383111,9.33380131 C3.71630757,9.45546798 4.29460531,9.63880131 4.45126233,10.007968 C4.52742299,10.254722 4.49244368,10.5224063 4.35543489,10.7413013 L4.34626879,10.7613013 C4.29543859,10.8796346 3.07134727,13.670468 0.353181251,14.117968 C0.140929202,14.1506854 -0.011682431,14.339387 0.000702947222,14.5538013 C0.00447356748,14.6178476 0.0194202375,14.6807403 0.0448668954,14.7396346 C0.249020996,15.2163013 1.10896806,15.5663013 2.67637158,15.8096346 C2.74262799,15.9609431 2.78965838,16.1199604 2.81636296,16.282968 C2.84886096,16.432968 2.88302553,16.587968 2.9305226,16.7521346 C2.98448375,16.9726241 3.18998799,17.1217384 3.41632603,17.1046346 C3.56847064,17.0971511 3.71962976,17.075954 3.8679649,17.0413013 C4.21821022,16.9650201 4.57530084,16.9245343 4.93373263,16.920468 C5.18979352,16.9210751 5.44536753,16.9428156 5.69785226,16.985468 C6.22479552,17.1210871 6.71439763,17.3737362 7.13026409,17.7246346 C7.89931034,18.3796482 8.86576554,18.7578623 9.87509514,18.7988013 C9.9092597,18.7988013 9.94342426,18.7988013 9.97675555,18.7988013 C10.0100868,18.7988013 10.0675833,18.7988013 10.1225799,18.7988013 C11.1336303,18.7589054 12.1019983,18.3806317 12.8724106,17.7246346 C13.2884714,17.3735539 13.778387,17.12089 14.3056557,16.985468 C14.5581319,16.9427476 14.8137115,16.9210067 15.0697754,16.920468 C15.4279509,16.9220801 15.7850376,16.9600526 16.1355431,17.0338013 C16.2840958,17.0660061 16.4352592,17.0846935 16.587182,17.0896346 L16.6096806,17.0896346 C16.8273743,17.1011039 17.0220854,16.9551493 17.0721521,16.742968 C17.1196492,16.582968 17.1554803,16.4321346 17.187145,16.2788013 C17.2129224,16.1162184 17.2596994,15.9576709 17.3263031,15.8071346 C18.8937067,15.5638013 19.7536537,15.215468 19.9578078,14.740468 C19.9825031,14.6808697 19.9966029,14.6174168 19.9994719,14.552968 C20.0100325,14.3420101 19.8610786,14.1565224 19.6528266,14.1213013 C16.9338273,13.672968 15.7105693,10.8821346 15.6597391,10.7638013 L15.650573,10.7438013 C15.5134917,10.5252405 15.478501,10.2577734 15.5547455,10.0113013 C15.7114026,9.64213465 16.2897003,9.45880131 16.6721767,9.33713465 C16.7796701,9.30296798 16.879664,9.27130131 16.9629922,9.23880131 C17.6404505,8.97046798 17.9804296,8.64213465 17.9737633,8.26130131 C17.9363723,7.92419369 17.6935239,7.64578118 17.3646341,7.56296798 L17.3646341,7.56296798 C17.2323794,7.50873758 17.090931,7.48044615 16.9479931,7.47963465 C16.8164163,7.47771216 16.685968,7.50414448 16.5655166,7.55713465 C16.2965157,7.69350195 16.0036297,7.77642068 15.7030697,7.80130131 C15.5870651,7.79930402 15.4730538,7.77079946 15.3697569,7.71796798 C15.3772565,7.58046798 15.3864226,7.43796798 15.3955887,7.29046798 L15.3955887,7.23213465 C15.4789169,5.87380131 15.5880768,4.18213465 15.145604,3.18630131 C14.2838373,1.22663537 12.3338903,-0.027799435 10.1934089,0.000467980581 Z" id="Path"></path>
            </g>
        </g>
    </g>
</svg>
