<svg width="24" height="24" viewBox="0 0 24 24" xmlns="http://www.w3.org/2000/svg"><g fill="none" fill-rule="evenodd"><path d="M2.001 2H22v20H2.001z"/><path d="M12.193 2.6h-.395a5.321 5.321 0 0 0-4.94 3.191c-.444.995-.333 2.685-.25 4.044l.03.486a.79.79 0 0 1-.39.084 2.257 2.257 0 0 1-.916-.246.742.742 0 0 0-.317-.065.992.992 0 0 0-.972.666c-.055.289.074.71 1 1.075.083.033.184.065.29.099.383.121.962.305 1.118.674a.888.888 0 0 1-.096.733l-.009.02c-.05.119-1.275 2.91-3.993 3.357a.417.417 0 0 0-.352.436.55.55 0 0 0 .044.186c.204.476 1.064.826 2.631 1.07.067.15.114.31.14.473.033.15.067.305.115.47.053.22.259.369.485.352a2.55 2.55 0 0 0 .452-.064 5.29 5.29 0 0 1 1.066-.12c.256 0 .511.022.764.064a3.62 3.62 0 0 1 1.432.74 4.515 4.515 0 0 0 2.745 1.074h.248a4.516 4.516 0 0 0 2.75-1.074 3.618 3.618 0 0 1 1.433-.74 4.765 4.765 0 0 1 1.83.049c.148.032.3.05.451.056h.023a.45.45 0 0 0 .462-.347c.048-.16.083-.31.115-.464a1.9 1.9 0 0 1 .14-.472c1.567-.243 2.427-.592 2.63-1.067a.554.554 0 0 0 .042-.187.417.417 0 0 0-.346-.432c-2.72-.448-3.942-3.239-3.993-3.357l-.01-.02a.886.886 0 0 1-.095-.733c.156-.369.735-.552 1.117-.674.108-.034.208-.066.291-.098.677-.269 1.017-.597 1.01-.978a.812.812 0 0 0-.608-.698 1.115 1.115 0 0 0-.417-.083.917.917 0 0 0-.382.077 2.31 2.31 0 0 1-.863.244.76.76 0 0 1-.333-.083c.007-.138.016-.28.026-.428v-.058c.083-1.358.192-3.05-.25-4.046A5.333 5.333 0 0 0 12.193 2.6Z" fill="currentColor" fill-rule="nonzero"/></g></svg>
