<?xml version="1.0" encoding="UTF-8"?>
<svg width="24px" height="24px" viewBox="0 0 24 24" version="1.1" xmlns="http://www.w3.org/2000/svg" xmlns:xlink="http://www.w3.org/1999/xlink">
    <title>i-social-youtube</title>
    <g id="Symbols" stroke="none" stroke-width="1" fill="none" fill-rule="evenodd">
        <g id="logo-youtube" transform="translate(2.000000, 2.000000)">
            <rect id="Rectangle" x="0" y="0" width="20" height="20"></rect>
            <g id="Group" transform="translate(0.000000, 3.000000)" fill="currentColor" fill-rule="nonzero">
                <path d="M19.8333333,3 C19.8333333,3 19.6666667,1.58333333 19,1 C18.25,0.166666667 17.4166667,0.166666667 17,0.166666667 C14.1666667,0 10,0 10,0 L10,0 C10,0 5.83333333,0 3,0.166666667 C2.58333333,0.25 1.75,0.25 1,1 C0.416666667,1.58333333 0.166666667,3 0.166666667,3 C0.166666667,3 0,4.58333333 0,6.25 L0,7.75 C0,9.33333333 0.166666667,11 0.166666667,11 C0.166666667,11 0.333333333,12.4166667 1,13 C1.75,13.8333333 2.75,13.75 3.16666667,13.8333333 C4.75,14 10,14 10,14 C10,14 14.1666667,14 17,13.75 C17.4166667,13.6666667 18.25,13.6666667 19,12.9166667 C19.5833333,12.3333333 19.8333333,10.9166667 19.8333333,10.9166667 C19.8333333,10.9166667 20,9.33333333 20,7.66666667 L20,6.16666667 C20,4.58333333 19.8333333,3 19.8333333,3 Z M7.91666667,9.58333333 L7.91666667,4 L13.3333333,6.83333333 L7.91666667,9.58333333 Z" id="Shape"></path>
            </g>
        </g>
    </g>
</svg>
