<svg xmlns="http://www.w3.org/2000/svg" viewBox="0 0 48 48">
  <g fill="none" fill-rule="evenodd">
    <path d="M0 0h48v48H0z"/>
    <path fill="currentColor" fill-rule="nonzero" d="M41.115 4H6.885A2.885 2.885 0 004 6.885v34.23A2.885 2.885 0 006.885 44h18.482V28.531h-5.195v-6.054h5.195V18.02c0-5.168 3.155-7.98 7.764-7.98 2.208 0 4.105.164 4.658.238v5.4h-3.178c-2.508 0-2.994 1.192-2.994 2.941v3.857h5.996l-.781 6.054h-5.215V44h9.498A2.885 2.885 0 0044 41.115V6.885A2.885 2.885 0 0041.115 4z"/>
  </g>
</svg>
