<svg xmlns="http://www.w3.org/2000/svg" viewBox="0 0 48 48">
  <g fill="none" fill-rule="evenodd">
    <path d="M0 0h48v48H0z"/>
    <path fill="currentColor" fill-rule="nonzero" d="M23.996 3l1.926.007c2.528.023 4.912.104 7.24.246 2.74.166 5.244 1.115 7.241 2.743 1.93 1.574 3.249 3.702 3.916 6.316.479 1.876.59 3.358.634 6.571L45 24.002l-.047 5.126-.032 1.595c-.064 2.172-.21 3.441-.602 4.976-.667 2.614-1.985 4.742-3.916 6.316-1.997 1.629-4.502 2.577-7.24 2.744-2.236.136-4.52.216-6.93.243l-2.241.009c-3.247.008-6.247-.075-9.164-.252-2.74-.167-5.244-1.115-7.242-2.744-1.93-1.574-3.248-3.702-3.915-6.316-.479-1.876-.59-3.357-.634-6.57L3 25.912V22.1l.037-3.218c.043-3.213.155-4.694.634-6.57.667-2.615 1.985-4.743 3.915-6.317 1.998-1.628 4.503-2.577 7.242-2.743a138.85 138.85 0 017.25-.246L23.997 3zm.003 3.917a140.5 140.5 0 00-8.934.246c-1.947.118-3.627.747-5.003 1.869-1.266 1.032-2.139 2.458-2.596 4.248-.382 1.498-.473 2.781-.513 5.657l-.046 5.072.046 5.066.028 1.421c.054 1.928.173 3.01.485 4.235.457 1.79 1.33 3.216 2.596 4.249 1.376 1.121 3.056 1.75 5.004 1.869 2.522.153 5.11.234 7.879.244h1.047c3.177.008 6.096-.072 8.932-.244 1.948-.118 3.628-.747 5.004-1.87 1.266-1.032 2.139-2.458 2.596-4.248.347-1.361.454-2.546.5-4.91l.059-5.814-.046-5.07c-.04-2.876-.131-4.159-.513-5.657-.457-1.79-1.33-3.216-2.596-4.248-1.376-1.122-3.057-1.751-5.004-1.87A140.7 140.7 0 0024 6.918zm-.085 6.656c5.753 0 10.433 4.68 10.433 10.433s-4.68 10.433-10.433 10.433-10.433-4.68-10.433-10.433 4.68-10.433 10.433-10.433zm0 3.917a6.524 6.524 0 00-6.516 6.516 6.524 6.524 0 006.516 6.516 6.524 6.524 0 006.516-6.516 6.524 6.524 0 00-6.516-6.516zm11.219-7.146a2.765 2.765 0 110 5.531 2.765 2.765 0 010-5.53z"/>
  </g>
</svg>
