<svg xmlns="http://www.w3.org/2000/svg" viewBox="0 0 48 48">
  <g fill="none" fill-rule="evenodd">
    <path d="M0 0h48v48H0z"/>
    <path fill="currentColor" fill-rule="nonzero" d="M24 4C12.955 4 4 12.954 4 24s8.955 20 20 20 20-8.954 20-20S35.045 4 24 4zm2.301 26.643c-1.85 0-3.59-1-4.185-2.136 0 0-.996 3.947-1.205 4.709-.742 2.692-2.924 5.386-3.094 5.606-.118.154-.38.106-.406-.098-.047-.343-.604-3.74.052-6.51.327-1.391 2.202-9.336 2.202-9.336s-.546-1.093-.546-2.71c0-2.54 1.472-4.435 3.304-4.435 1.558 0 2.31 1.17 2.31 2.572 0 1.567-.997 3.909-1.51 6.08-.431 1.817.91 3.3 2.702 3.3 3.246 0 5.43-4.17 5.43-9.11 0-3.754-2.526-6.566-7.127-6.566-5.195 0-8.435 3.876-8.435 8.206 0 1.492.44 2.546 1.13 3.36.317.374.362.524.247.954-.083.316-.27 1.074-.35 1.374-.114.435-.465.59-.858.43-2.392-.977-3.508-3.599-3.508-6.545 0-4.867 4.104-10.703 12.245-10.703 6.54 0 10.846 4.733 10.846 9.815 0 6.722-3.737 11.743-9.244 11.743z"/>
  </g>
</svg>
