<svg xmlns="http://www.w3.org/2000/svg" viewBox="0 0 48 48">
  <g fill="none" fill-rule="evenodd">
    <path d="M0 0h48v48H0z"/>
    <path fill="currentColor" fill-rule="nonzero" d="M24.08 8.999h.063l.41.002c2.533.011 12.998.109 15.88.897a5.262 5.262 0 013.702 3.703c.27.985.456 2.292.584 3.639l.048.54A76.89 76.89 0 0145 23.362v.5a83.045 83.045 0 01-.205 5.27l-.043.537c-.128 1.527-.322 3.053-.616 4.17a5.262 5.262 0 01-3.703 3.702c-2.932.772-13.716.855-16.005.864h-.206l-.079.001h-.571c-2.283-.01-13.043-.097-16.007-.9a5.263 5.263 0 01-3.702-3.701c-.26-.976-.44-2.276-.568-3.617l-.048-.538a81.077 81.077 0 01-.246-5.574l-.002-.179v-.39l.002-.177c.008-.819.044-2.874.203-5.023l.043-.538c.128-1.527.322-3.052.616-4.17.484-1.798 1.938-3.252 3.702-3.736 2.882-.759 13.347-.852 15.88-.864l.41-.001h.062zm-4.267 8.407V30l10.933-6.297-10.933-6.297z"/>
  </g>
</svg>
