<svg xmlns="http://www.w3.org/2000/svg" viewBox="0 0 48 48">
  <g fill="none" fill-rule="evenodd">
    <path d="M0 0h48v48H0z"/>
    <path fill="currentColor" fill-rule="nonzero" d="M33.414 45.414L47.4 31.43c.04-.04.08-.083.118-.127l-.104.112a2.022 2.022 0 00.393-.555A1.987 1.987 0 0048 30v-.05l-.003-.052L48 30a2.023 2.023 0 00-.034-.37l-.009-.042a1.832 1.832 0 00-.13-.403 1.86 1.86 0 00-.181-.322c-.07-.1-.144-.188-.224-.27l-.008-.007-14-14-2.828 2.828L41.17 28H4V2H0v28a2 2 0 001.64 1.968L2 32h39.171L30.586 42.586l2.828 2.828z"/>
  </g>
</svg>
