<svg xmlns="http://www.w3.org/2000/svg" viewBox="0 0 48 48">
  <g fill="none" fill-rule="evenodd">
    <path d="M0 0h48v48H0z"/>
    <path fill="currentColor" fill-rule="nonzero" d="M19.712 0C30.6 0 39.425 8.791 39.425 19.636c0 4.843-1.76 9.276-4.678 12.7L48 45.538 45.939 48 32.463 34.612a19.68 19.68 0 01-12.75 4.66C8.825 39.272 0 30.48 0 19.636 0 8.791 8.826 0 19.712 0zm0 3.219c-9.102 0-16.48 7.35-16.48 16.417 0 9.067 7.378 16.417 16.48 16.417 9.103 0 16.481-7.35 16.481-16.417 0-9.067-7.378-16.417-16.48-16.417z"/>
  </g>
</svg>
