<svg xmlns="http://www.w3.org/2000/svg" fill="none" viewBox="0 0 8 13">
  <path fill="currentColor" fill-rule="evenodd" d="M1.029 5.366a.25.25 0 01.015-.258l2.75-4a.25.25 0 01.412 0l2.75 4a.25.25 0 01-.206.392h-5.5a.25.25 0 01-.221-.134zm0 2.268a.25.25 0 00.015.257l2.75 4a.25.25 0 00.412 0l2.75-4A.25.25 0 006.75 7.5h-5.5a.25.25 0 00-.221.134z" clip-rule="evenodd"/>
  <path fill="#fff" d="M1.044 5.108l-.412-.283.412.283zm-.015.258l.442-.233-.442.233zm2.765-4.258L3.382.825l.412.283zm.412 0l.412-.283-.412.283zm2.75 4l-.412.284.412-.284zM7 5.25h-.5.5zm-.03.116l-.44-.236-.002.004.443.232zm-.22.134V6v-.5zm-5.5 0V6v-.5zm-.206 2.39l-.412.283.412-.283zm-.015-.257l.442.232-.442-.232zm2.765 4.257l-.412.284.412-.284zm.412 0l.412.284-.412-.284zm2.75-4l-.412-.283.412.283zM7 7.75h-.5.5zm-.03-.116l-.442.232.002.004.44-.236zM6.75 7.5V7v.5zm-5.5 0V7v.5zM.632 4.825a.75.75 0 00-.046.774l.885-.466a.25.25 0 01-.015.258l-.824-.566zm2.75-4l-2.75 4 .824.567 2.75-4-.824-.567zM4 .5a.75.75 0 00-.618.325l.824.567A.25.25 0 014 1.5v-1zm.618.325A.75.75 0 004 .5v1a.25.25 0 01-.206-.108l.824-.567zm2.75 4l-2.75-4-.824.567 2.75 4 .824-.567zm.132.424a.75.75 0 00-.132-.424l-.824.567A.25.25 0 016.5 5.25h1zm-.088.353a.745.745 0 00.088-.353l-1 .002c0-.043.01-.084.03-.121l.882.472zM6.75 6a.75.75 0 00.663-.402l-.886-.464A.25.25 0 016.748 5l.003 1zm-5.5 0h5.5V5h-5.5v1zm-.664-.401c.13.246.385.4.664.4V5a.25.25 0 01.221.134L.586 5.6zm.87 2.01a.25.25 0 01.015.257l-.885-.465a.75.75 0 00.046.773l.824-.566zm2.75 4l-2.75-4-.824.566 2.75 4 .824-.567zM4 11.498c.082 0 .16.041.206.11l-.824.566A.75.75 0 004 12.5v-1zm-.206.11a.25.25 0 01.206-.11v1a.75.75 0 00.618-.324l-.824-.567zm2.75-4l-2.75 4 .824.566 2.75-4-.824-.567zm-.044.14c0-.05.015-.1.044-.14l.824.566A.75.75 0 007.5 7.75h-1zm.03.121a.255.255 0 01-.03-.12h1a.745.745 0 00-.088-.352l-.882.472zm.219.13a.25.25 0 01-.221-.134l.886-.464A.75.75 0 006.75 7l-.002 1zm-5.5 0h5.5V7h-5.5v1zm.222-.134a.25.25 0 01-.22.134L1.25 7a.75.75 0 00-.664.4l.885.466z"/>
</svg>
