<svg xmlns="http://www.w3.org/2000/svg" viewBox="0 0 48 48">
  <g fill="none" fill-rule="evenodd">
    <path d="M0 0h48v48H0z"/>
    <path fill="currentColor" fill-rule="nonzero" d="M18.294 18.118L24 1l5.703 17.118L48 18.119 33.149 28.978l5.707 17.7L24 35.814 9.144 46.678l5.701-17.7L0 18.119l18.294-.001zM24 9.516l-3.402 10.207a1.58 1.58 0 01-1.215 1.062l-.287.026-10.857-.003 8.847 6.471c.472.345.708.917.634 1.48l-.064.281-3.406 10.57 8.818-6.443a1.58 1.58 0 011.617-.15l.249.15 8.816 6.446-3.404-10.57a1.58 1.58 0 01.354-1.573l.216-.19 8.841-6.47-10.85.002a1.58 1.58 0 01-1.388-.821l-.114-.264L24 9.517z"/>
  </g>
</svg>
