<svg xmlns="http://www.w3.org/2000/svg" viewBox="0 0 48 48">
  <g fill="none" fill-rule="evenodd">
    <path d="M0 0h48v48H0z"/>
    <path fill="currentColor" fill-rule="nonzero" d="M19.712 0C30.6 0 39.425 8.826 39.425 19.712c0 4.862-1.76 9.313-4.678 12.75L48 45.715 45.715 48 32.462 34.747a19.634 19.634 0 01-12.75 4.678C8.826 39.425 0 30.599 0 19.712 0 8.826 8.826 0 19.712 0zm0 3.232c-9.102 0-16.48 7.378-16.48 16.48 0 9.103 7.378 16.481 16.48 16.481 9.103 0 16.481-7.378 16.481-16.48 0-9.103-7.378-16.481-16.48-16.481zm1.158 6.193v8.75l8.753.002v2.693l-8.753-.002v8.755h-2.693v-8.755l-8.752.002v-2.693l8.752-.002v-8.75h2.693z"/>
  </g>
</svg>
