<svg width="24" height="24" fill="#5328E1" viewBox="0 0 24 24" xmlns="http://www.w3.org/2000/svg"><path fill-rule="evenodd" clip-rule="evenodd" d="m18.384 17.5-1.5 1.5 1.5 1.5-.884.884-1.942-1.942a.625.625 0 0 1 0-.884l1.942-1.942z"/><path d="M10.5 12h-5A2.5 2.5 0 0 0 3 14.5v4A2.5 2.5 0 0 0 5.5 21h5a2.5 2.5 0 0 0 2.5-2.5v-4a2.5 2.5 0 0 0-2.5-2.5" fill="none"/><path fill="#171717" fill-rule="evenodd" clip-rule="evenodd" d="M5.5 12.625c-1.036 0-1.875.84-1.875 1.875v4c0 1.035.84 1.875 1.875 1.875h5c1.036 0 1.875-.84 1.875-1.875v-4c0-1.036-.84-1.875-1.875-1.875zM2.375 14.5c0-1.726 1.4-3.125 3.125-3.125h5c1.726 0 3.125 1.4 3.125 3.125v4c0 1.726-1.4 3.125-3.125 3.125h-5A3.125 3.125 0 0 1 2.375 18.5z"/><path d="M11 9V5.5A2.5 2.5 0 0 1 13.5 3h5A2.5 2.5 0 0 1 21 5.5v4a2.5 2.5 0 0 1-2.5 2.5H16" fill="none"/><path fill-rule="evenodd" clip-rule="evenodd" d="M13.5 3.625A1.875 1.875 0 0 0 11.625 5.5v4.125h-1.25V5.5A3.125 3.125 0 0 1 13.5 2.375h5A3.125 3.125 0 0 1 21.625 5.5v4a3.124 3.124 0 0 1-3.125 3.125h-3.125v-1.25H18.5A1.875 1.875 0 0 0 20.375 9.5v-4A1.875 1.875 0 0 0 18.5 3.625zm8.125 11.75V17A2.625 2.625 0 0 1 19 19.625h-2.625v-1.25H19A1.375 1.375 0 0 0 20.375 17v-1.625z"/><path fill="#171717" fill-rule="evenodd" clip-rule="evenodd" d="m6.5 2.616 1.942 1.942a.625.625 0 0 1 0 .884L6.5 7.384 5.616 6.5l1.5-1.5-1.5-1.5z"/><path fill="#171717" fill-rule="evenodd" clip-rule="evenodd" d="M3.144 5.144A2.63 2.63 0 0 1 5 4.375h2.625v1.25H5A1.375 1.375 0 0 0 3.625 7v1.625h-1.25V7c0-.696.277-1.364.769-1.856m3.481 9.231V15a1.375 1.375 0 0 0 2.75 0v-.625h1.25V15a2.625 2.625 0 0 1-5.25 0v-.625z"/><path fill-rule="evenodd" clip-rule="evenodd" d="M14.625 5.375V6a1.375 1.375 0 0 0 2.75 0v-.625h1.25V6a2.625 2.625 0 0 1-5.25 0v-.625z"/></svg>
