<svg width="24" height="24" viewBox="0 0 24 24" fill="#5328E1" xmlns="http://www.w3.org/2000/svg"><path d="M18 4.5H6a3 3 0 0 0-3 3V18a3 3 0 0 0 3 3h12a3 3 0 0 0 3-3V7.5a3 3 0 0 0-3-3" fill="none"/><path fill-rule="evenodd" clip-rule="evenodd" d="M6 5.125A2.375 2.375 0 0 0 3.625 7.5V18A2.375 2.375 0 0 0 6 20.375h12A2.375 2.375 0 0 0 20.375 18V7.5A2.375 2.375 0 0 0 18 5.125zM2.375 7.5A3.625 3.625 0 0 1 6 3.875h12A3.625 3.625 0 0 1 21.625 7.5V18A3.625 3.625 0 0 1 18 21.625H6A3.625 3.625 0 0 1 2.375 18z"/><path fill="#171717" fill-rule="evenodd" clip-rule="evenodd" d="M7.375 14.074h3.198v1.25H7.375z"/><path fill="#171717" fill-rule="evenodd" clip-rule="evenodd" d="M8.625 14.074v3.199h-1.25v-3.199z"/><path fill="#171717" fill-rule="evenodd" clip-rule="evenodd" d="m16.848 14.449-.3.549a5.035 5.035 0 0 1-6.993 1.92l-.141-.083c-.243-.142-.466-.272-.646-.435-.24-.217-.398-.476-.59-.828l-.299-.55 1.098-.597.299.549c.187.344.261.436.33.499.078.07.166.122.41.265l.178.106A3.785 3.785 0 0 0 15.45 14.4l.299-.549zm-1.973-5.074h2.25v1.25h-2.25zm-4 0h2.25v1.25h-2.25zm-4 0h2.25v1.25h-2.25zm1.25-7v4.25h-1.25v-4.25zm9 0v4.25h-1.25v-4.25z"/></svg>
