<svg width="24" height="24" viewBox="0 0 24 24" fill="#5328E1" xmlns="http://www.w3.org/2000/svg"><g clip-path="url(#a)"><path d="M20 21V4.498a1 1 0 0 0-.551-.894l-.99-.498a1 1 0 0 0-.892-.002l-1.573.777-1.54-.774a1 1 0 0 0-.895-.001L12 3.882l-1.559-.776a1 1 0 0 0-.894.001l-1.541.774-1.573-.777a1 1 0 0 0-.892.002l-.99.498A1 1 0 0 0 4 4.498V21" fill="#fff"/><path fill-rule="evenodd" clip-rule="evenodd" d="m6.71 2.544 1.294.639 1.262-.635a1.63 1.63 0 0 1 1.454-.002l1.28.638 1.28-.637a1.63 1.63 0 0 1 1.454.001l1.262.635 1.293-.639a1.63 1.63 0 0 1 1.45.003l.99.499a1.63 1.63 0 0 1 .896 1.452v17.127h-1.25V4.498a.38.38 0 0 0-.207-.336l-.989-.497a.38.38 0 0 0-.334-.001l-1.574.777a.63.63 0 0 1-.558-.002l-1.54-.773a.38.38 0 0 0-.335 0l-1.56.776a.63.63 0 0 1-.556 0l-1.56-.776a.38.38 0 0 0-.335 0l-1.54.774a.63.63 0 0 1-.558.001l-1.573-.777a.38.38 0 0 0-.335 0l-.99.498a.38.38 0 0 0-.206.336v17.127h-1.25V4.498a1.63 1.63 0 0 1 .895-1.452l.99-.498a1.63 1.63 0 0 1 1.45-.004"/><path fill-rule="evenodd" clip-rule="evenodd" d="M14.374 15.375h2.25v1.25h-2.25zm.001-3.5h2.25v1.25h-2.25zm-7 3.5h5.25v1.25h-5.25zm0-3.5h5.25v1.25h-5.25zm0-3.5h9.25v1.25h-9.25z"/><path fill-rule="evenodd" clip-rule="evenodd" d="M1.375 20.375h21.25v1.25H1.375z" fill="#171717"/></g><defs><clipPath id="a"><path fill="#fff" d="M0 0h24v24H0z"/></clipPath></defs></svg>
