<svg width="24" height="24" viewBox="0 0 24 24" fill="#5328E1" xmlns="http://www.w3.org/2000/svg"><path fill-rule="evenodd" clip-rule="evenodd" d="M5 16.667H3.833A2.333 2.333 0 0 1 1.5 14.333V6.167a2.333 2.333 0 0 1 2.333-2.334h12.834A2.333 2.333 0 0 1 19 6.167v1.166" fill="#fff"/><path fill-rule="evenodd" clip-rule="evenodd" d="M3.833 4.458a1.71 1.71 0 0 0-1.708 1.709v8.166a1.71 1.71 0 0 0 1.708 1.709H5a.625.625 0 1 1 0 1.25H3.833a2.96 2.96 0 0 1-2.958-2.959V6.167a2.96 2.96 0 0 1 2.958-2.959h12.834a2.96 2.96 0 0 1 2.958 2.959v1.166a.625.625 0 1 1-1.25 0V6.167a1.71 1.71 0 0 0-1.708-1.709z" fill="#171717"/><path fill-rule="evenodd" clip-rule="evenodd" d="M20.167 20.167H7.333A2.333 2.333 0 0 1 5 17.833V9.667a2.333 2.333 0 0 1 2.333-2.334h12.834A2.333 2.333 0 0 1 22.5 9.667v8.166a2.333 2.333 0 0 1-2.333 2.334" fill="#fff"/><path fill-rule="evenodd" clip-rule="evenodd" d="M7.333 7.958a1.71 1.71 0 0 0-1.708 1.709v8.166a1.71 1.71 0 0 0 1.708 1.709h12.834a1.71 1.71 0 0 0 1.708-1.709V9.667a1.71 1.71 0 0 0-1.708-1.709zm-2.092-.383a2.96 2.96 0 0 1 2.092-.867h12.834a2.96 2.96 0 0 1 2.958 2.959v8.166a2.96 2.96 0 0 1-2.958 2.959H7.333a2.96 2.96 0 0 1-2.958-2.959V9.667c0-.785.312-1.537.866-2.092"/><path fill-rule="evenodd" clip-rule="evenodd" d="M4.375 12c0-.345.28-.625.625-.625h17.5a.625.625 0 1 1 0 1.25H5A.625.625 0 0 1 4.375 12m3.5 4.042h4.75v1.25h-4.75z"/></svg>
