<svg width="24" height="24" viewBox="0 0 24 24" fill="#000" xmlns="http://www.w3.org/2000/svg"><path fill-rule="evenodd" clip-rule="evenodd" d="M4.409 4.409A2.25 2.25 0 0 1 6 3.75h12A2.25 2.25 0 0 1 20.25 6v14.048l-2.695-1.684a.75.75 0 0 0-.397-.114H6A2.25 2.25 0 0 1 3.75 16V6c0-.597.237-1.169.659-1.591M6 2.25A3.75 3.75 0 0 0 2.25 6v10A3.75 3.75 0 0 0 6 19.75h10.943l2.894 1.809a1.25 1.25 0 0 0 1.913-1.058V6A3.75 3.75 0 0 0 18 2.25zm1.95 9.65a.75.75 0 1 0-.9 1.2 8.25 8.25 0 0 0 9.9 0 .75.75 0 1 0-.9-1.2 6.75 6.75 0 0 1-8.1 0" /></svg>
