<svg width="16" height="16" viewBox="0 0 16 16" xmlns="http://www.w3.org/2000/svg"><g clip-path="url(#a)" fill-rule="evenodd" clip-rule="evenodd" fill="#000"><path d="M7.167 1.891a1.67 1.67 0 0 1 1.666 0l4.04 2.333c.516.297.834.848.834 1.443v4.666a1.67 1.67 0 0 1-.834 1.443l-4.04 2.333a1.67 1.67 0 0 1-1.666 0l-4.04-2.333a1.67 1.67 0 0 1-.834-1.444V5.667a1.67 1.67 0 0 1 .833-1.443zm.5.866L3.627 5.09a.67.67 0 0 0-.334.577v4.665c0 .239.127.458.333.577l4.04 2.334a.67.67 0 0 0 .667 0l4.04-2.333a.67.67 0 0 0 .334-.577V5.667a.67.67 0 0 0-.333-.577l-4.04-2.333a.67.67 0 0 0-.667 0"/><path d="M4.167 8.117a.5.5 0 0 1 .683-.182L6.6 8.95a.5.5 0 0 1-.502.865L4.348 8.8a.5.5 0 0 1-.181-.683M2.516 4.834A.5.5 0 0 1 3.2 4.65L8 7.423l4.8-2.772a.5.5 0 0 1 .5.866L8.25 8.433a.5.5 0 0 1-.5 0L2.7 5.517a.5.5 0 0 1-.184-.683"/><path d="M8 7.5a.5.5 0 0 1 .5.5v5.833a.5.5 0 1 1-1 0V8a.5.5 0 0 1 .5-.5M4.969 3.235a.5.5 0 0 1 .685-.174l5.127 3.051a.5.5 0 0 1-.51.86L5.142 3.92a.5.5 0 0 1-.174-.686"/></g><defs><clipPath id="a"><path fill="#fff" d="M1 1h14v14H1z"/></clipPath></defs></svg>
