<svg width="16" height="16" viewBox="0 0 16 16" fill="#000" xmlns="http://www.w3.org/2000/svg"><path fill-rule="evenodd" clip-rule="evenodd" d="M8.819 2.625h2.375c.906 0 1.64.733 1.64 1.639v2.375c0 .435-.174.851-.48 1.158l-4.556 4.556a1.64 1.64 0 0 1-2.318 0L3.105 9.978a1.64 1.64 0 0 1 0-2.318l4.556-4.555a1.64 1.64 0 0 1 1.158-.48m2.375 1H8.82a.64.64 0 0 0-.451.187L3.812 8.368a.64.64 0 0 0 0 .903l2.375 2.375a.64.64 0 0 0 .904 0l4.555-4.555a.64.64 0 0 0 .187-.452V4.264a.64.64 0 0 0-.639-.639m1.139 5.5a.5.5 0 0 1 .5.5v2.167a1.583 1.583 0 0 1-1.583 1.583H9.083a.5.5 0 0 1 0-1h2.167a.583.583 0 0 0 .583-.583V9.625a.5.5 0 0 1 .5-.5"/></svg>
