<svg width="16" height="16" viewBox="0 0 16 16" xmlns="http://www.w3.org/2000/svg"><path fill-rule="evenodd" clip-rule="evenodd" d="M5.333 5.833a.833.833 0 0 0-.833.834v4.666a.833.833 0 0 0 .833.834h7.334a.833.833 0 0 0 .833-.834V6.667a.833.833 0 0 0-.833-.834zM4.037 5.37c.344-.344.81-.537 1.296-.537h7.334A1.833 1.833 0 0 1 14.5 6.667v4.666a1.833 1.833 0 0 1-1.833 1.834H5.333A1.833 1.833 0 0 1 3.5 11.333V6.667c0-.487.193-.953.537-1.297"/><path fill-rule="evenodd" clip-rule="evenodd" d="M3.5 8a.5.5 0 0 1 .5-.5h10a.5.5 0 0 1 0 1H4a.5.5 0 0 1-.5-.5"/><path fill-rule="evenodd" clip-rule="evenodd" d="M3.333 3.833a.833.833 0 0 0-.833.834v4.666a.833.833 0 0 0 .833.834H4a.5.5 0 1 1 0 1h-.667A1.833 1.833 0 0 1 1.5 9.333V4.667a1.833 1.833 0 0 1 1.833-1.834h7.334A1.833 1.833 0 0 1 12.5 4.667v.666a.5.5 0 0 1-1 0v-.666a.833.833 0 0 0-.833-.834zM5.5 10.667a.5.5 0 0 1 .5-.5h2a.5.5 0 1 1 0 1H6a.5.5 0 0 1-.5-.5"/></svg>
