<svg width="20" height="20" viewBox="0 0 20 20" fill="#171717" xmlns="http://www.w3.org/2000/svg"><g clip-path="url(#a)"><rect x="2.5" y="2" width="15" height="16" rx="5" fill="#fff"/><path fill-rule="evenodd" clip-rule="evenodd" d="M7.658 16.825h4.684v1.35H7.658zm0-15h4.684v1.35H7.658zM3.175 7.658v4.684h-1.35V7.658zm15 0v4.684h-1.35V7.658zM2.5 13.492c.373 0 .675.302.675.675a2.66 2.66 0 0 0 2.658 2.658.675.675 0 1 1 0 1.35 4.01 4.01 0 0 1-4.008-4.008c0-.373.302-.675.675-.675"/><path fill-rule="evenodd" clip-rule="evenodd" d="M3.175 13.492v.675a2.66 2.66 0 0 0 2.658 2.658h.675v1.35h-.675a4.01 4.01 0 0 1-4.008-4.008v-.675zM13.492 1.825h.675a4.01 4.01 0 0 1 4.008 4.008v.675h-1.35v-.675a2.66 2.66 0 0 0-2.658-2.658h-.675zm-.31 5.947-5.411 5.41-.955-.954 5.411-5.41z"/><path d="M13.099 11.92a.834.834 0 1 1-.02-.019zm-5-5a.833.833 0 1 1-.02-.019z"/><path fill-rule="evenodd" clip-rule="evenodd" d="M5.833 3.175a2.66 2.66 0 0 0-2.658 2.658v.675h-1.35v-.675a4.01 4.01 0 0 1 4.008-4.008h.675v1.35zm12.342 10.317v.675a4.01 4.01 0 0 1-4.008 4.008h-.675v-1.35h.675a2.66 2.66 0 0 0 2.658-2.658v-.675z"/></g><defs><clipPath id="a"><path fill="#fff" d="M0 0h20v20H0z"/></clipPath></defs></svg>
