<svg width="16" height="16" viewBox="0 0 16 16" xmlns="http://www.w3.org/2000/svg"><path d="M7.994 6.626a.3.3 0 1 0 .002.6.3.3 0 0 0-.002-.6"/><path fill-rule="evenodd" clip-rule="evenodd" d="M7.995 3.6A3.445 3.445 0 0 0 4.55 7.045c0 .908.44 1.908 1.08 2.865.631.944 1.41 1.777 1.984 2.334l.002.001a.544.544 0 0 0 .76 0c.574-.558 1.353-1.39 1.985-2.335.64-.957 1.08-1.957 1.08-2.865A3.445 3.445 0 0 0 7.994 3.6m-3.285.16a4.645 4.645 0 0 1 7.93 3.285c0 1.26-.594 2.503-1.282 3.532-.696 1.042-1.54 1.94-2.145 2.528a1.744 1.744 0 0 1-2.435 0c-.606-.588-1.45-1.487-2.146-2.528-.688-1.03-1.282-2.271-1.282-3.532 0-1.232.49-2.413 1.36-3.284m3.282 2.266a.9.9 0 1 1 .007 1.8.9.9 0 0 1-.007-1.8M7.937 7.22a.3.3 0 0 0 .225-.046.3.3 0 0 0 .11-.135.3.3 0 0 0 0-.23.3.3 0 1 0-.335.41"/></svg>
