<svg width="24" height="24" viewBox="0 0 24 24" fill="#171717" xmlns="http://www.w3.org/2000/svg"><path fill-rule="evenodd" clip-rule="evenodd" d="M12 7.211a1.5 1.5 0 0 1-1.14-.525C10.365 6.106 9.558 5.5 8.304 5.5 6.176 5.5 4.5 7.572 4.5 9.755c0 2.28 1.442 4.467 3.34 6.186a14.7 14.7 0 0 0 2.724 1.958c.412.226.77.387 1.049.488.231.084.353.105.385.111h.004c.032-.006.154-.027.385-.111.28-.101.637-.262 1.05-.488a14.7 14.7 0 0 0 2.723-1.958c1.898-1.719 3.34-3.906 3.34-6.186 0-2.183-1.676-4.255-3.804-4.255-1.254 0-2.061.607-2.556 1.186A1.5 1.5 0 0 1 12 7.21m-1.13-2.486c.47.298.843.65 1.13.986.287-.336.66-.688 1.13-.986A4.7 4.7 0 0 1 15.697 4C18.87 4 21 6.98 21 9.755 21 15.556 13.778 20 12 20S3 15.556 3 9.755C3 6.98 5.13 4 8.304 4a4.7 4.7 0 0 1 2.565.725"/></svg>
