<svg xmlns="http://www.w3.org/2000/svg" viewBox="0 0 453.5 453.5" style="enable-background:new 0 0 453.5 453.5" xml:space="preserve"><path d="M299.7 191.1 411 113l-14.6-20.9L287 168.9 227.4 65.2l-60 104.3L57.1 92.1 42.5 113l112.1 78.7-67.5 117.6-44.6 31.3 14.6 20.9-4.1 7.1h348.7l-4.6-8 13.9-19.9-42.6-29.9-68.7-119.7zm19.4 85-70.2-49.3 29.8-20.9 40.4 70.2zm-212.6 50.7 120.3-84.5 122.3 85.9 8.5 14.8H97.1l9.4-16.2zm69.1-120.4 29 20.3-68.2 47.9 39.2-68.2zm90.4-22.7-39.3 27.6-38.4-27 39-67.9 38.7 67.3z"/></svg>
