<svg xmlns="http://www.w3.org/2000/svg" viewBox="0 0 453.5 453.5" style="enable-background:new 0 0 453.5 453.5" xml:space="preserve"><path d="m375 137.9 34.8-24.4-14.6-20.9-27.2 19.1-7.1-26.2h-241V111h221.4l4.4 16.3-118.1 82.9h-4.2L55.8 92.6l-14.6 20.9 137.9 96.8h-9.6c-51.1 0-69.2 22.3-89.3 53.9-7.8 12.3-36.7 58.8-53.1 85.4L15 369h422.4L375 137.9zm-205.5 97.9h21.7l-112.6 79c10.2-16.4 19.2-30.9 23.1-37 17.6-27.6 28.6-42 67.8-42zm56 7 143.4 100.7H82.1l143.4-100.7zm34.3-7H375l26.9 99.8-142.1-99.8zm108.3-25.5h-96.2l80.9-56.8 15.3 56.8z"/></svg>
