<svg xmlns="http://www.w3.org/2000/svg" viewBox="0 0 453.5 453.5" style="enable-background:new 0 0 453.5 453.5" xml:space="preserve"><path d="m395.2 361.9-354-248.4 14.6-20.9 353.9 248.5-14.5 20.8z"/><path d="M437.4 85.5h-25.9l-4.3 24.3-12-17.2-23.9 16.8c-6.2-4-13.8-6.9-23.7-6.9-20.7 0-31.6 12.5-39.5 21.7-7.5 8.6-11.8 13.1-20.8 13.1s-13.3-4.5-20.8-13.1c-7.9-9.1-18.8-21.7-39.5-21.7s-31.6 12.5-39.5 21.7c-7.5 8.6-11.8 13.1-20.8 13.1s-13.3-4.5-20.8-13.1c-7.9-9.1-18.8-21.7-39.5-21.7S74.8 115 66.9 124.2c-6.3 7.3-10.4 11.6-16.8 12.8l-9-51.5H15l42.7 244-16.5 11.6L55.8 362l6.7-4.7 2.1 11.8h323.2l49.6-283.6zM85.6 341l283.9-199.3c6.5 7.4 14.9 16.4 28.7 19.4l-31.9 182.4H86l-.4-2.5zm201.6-178.9c4 0 7.6-.5 10.8-1.3L80.8 313.3 54.2 161.4c15.5-2.8 24.5-13.1 31.3-21 7.5-8.6 11.8-13.1 20.8-13.1s13.3 4.5 20.8 13.1c7.9 9.1 18.8 21.7 39.5 21.7s31.6-12.5 39.5-21.7c7.5-8.6 11.8-13.1 20.8-13.1s13.3 4.5 20.8 13.1c7.9 9.2 18.8 21.7 39.5 21.7zm58.5-34.8L326 141.1c.2-.2.4-.5.6-.7 7.1-8 11.3-12.5 19.1-13.1zm60.4-11.3-3.6 20.7c-4.7-1.3-8.3-4.4-12.6-9.3l16.2-11.4z"/></svg>
