<svg xmlns="http://www.w3.org/2000/svg" viewBox="0 0 453.5 453.5" style="enable-background:new 0 0 453.5 453.5" xml:space="preserve"><path d="m368.7 142.7 41.8-29.4-14.6-20.9-27.2 19.1v-26H85.2v27L56.6 92.4 42 113.3l43.2 30.4v167.1L42 341.2l14.6 20.9L85.2 342v27h283.5v-26l27.2 19.1 14.6-20.9-41.8-29.4V142.7zm-25.5 151.2-14.6-10.3c9.3-16.7 14.6-35.9 14.6-56.3s-5.3-39.6-14.6-56.3l14.6-10.3v133.2zM146 186.4l58.1 40.8-58.1 40.9c-6.2-12.3-9.8-26.2-9.8-40.8 0-14.7 3.6-28.6 9.8-40.9zm80.3 56.4 66.5 46.8C276.3 307.1 252.9 318 227 318c-26.2 0-49.8-11.2-66.4-29l65.7-46.2zm-65.7-77.3c16.6-17.8 40.2-29 66.4-29 25.9 0 49.3 10.9 65.8 28.4l-66.5 46.7-65.7-46.1zm146.9 20.2c6.5 12.5 10.1 26.6 10.1 41.6s-3.7 29.1-10.1 41.6l-59.1-41.6 59.1-41.6zM110.7 324l28.8-20.3c21.3 24.3 52.6 39.7 87.4 39.7 34.5 0 65.5-15.1 86.9-39.1l29.4 20.6v18.5H110.7V324zm0-162.3 14.2 10c-9.1 16.5-14.2 35.5-14.2 55.6s5.2 39.1 14.2 55.6l-14.2 10V161.7zm232.5-32.2-29.4 20.6c-21.3-24-52.3-39.1-86.9-39.1-34.8 0-66.1 15.4-87.4 39.7l-28.8-20.3v-19.5h232.4v18.6h.1z"/></svg>
