<?xml version="1.0" encoding="utf-8"?>
<!-- Generator: Adobe Illustrator 23.0.4, SVG Export Plug-In . SVG Version: 6.00 Build 0)  -->
<svg version="1.1" id="Ebene_1" xmlns="http://www.w3.org/2000/svg" xmlns:xlink="http://www.w3.org/1999/xlink" x="0px" y="0px"
	 viewBox="0 0 453.5 453.5" style="enable-background:new 0 0 453.5 453.5;" xml:space="preserve">
<g>
	<path d="M368.7,142.7l41.8-29.4l-14.6-20.9l-27.2,19.1V85.5H85.2v27L56.6,92.4L42,113.3l43.2,30.4v167.1L42,341.2l14.6,20.9
		L85.2,342v27h283.5V343l27.2,19.1l14.6-20.9l-41.8-29.4V142.7L368.7,142.7z M343.2,293.9l-14.6-10.3c9.3-16.7,14.6-35.9,14.6-56.3
		s-5.3-39.6-14.6-56.3l14.6-10.3V293.9L343.2,293.9z M146,186.4l58.1,40.8L146,268.1c-6.2-12.3-9.8-26.2-9.8-40.8
		C136.2,212.6,139.8,198.7,146,186.4L146,186.4z M226.3,242.8l66.5,46.8c-16.5,17.5-39.9,28.4-65.8,28.4c-26.2,0-49.8-11.2-66.4-29
		L226.3,242.8L226.3,242.8z M160.6,165.5c16.6-17.8,40.2-29,66.4-29c25.9,0,49.3,10.9,65.8,28.4l-66.5,46.7L160.6,165.5L160.6,165.5
		z M307.5,185.7c6.5,12.5,10.1,26.6,10.1,41.6c0,15-3.7,29.1-10.1,41.6l-59.1-41.6L307.5,185.7L307.5,185.7z M110.7,324l28.8-20.3
		c21.3,24.3,52.6,39.7,87.4,39.7c34.5,0,65.5-15.1,86.9-39.1l29.4,20.6v18.5H110.7V324L110.7,324z M110.7,161.7l14.2,10
		c-9.1,16.5-14.2,35.5-14.2,55.6s5.2,39.1,14.2,55.6l-14.2,10V161.7L110.7,161.7z M343.2,129.5l-29.4,20.6
		c-21.3-24-52.3-39.1-86.9-39.1c-34.8,0-66.1,15.4-87.4,39.7l-28.8-20.3v-19.5h232.4V129.5L343.2,129.5z"/>
</g>
</svg>
