<?xml version="1.0" encoding="utf-8"?>
<!-- Generator: Adobe Illustrator 23.0.4, SVG Export Plug-In . SVG Version: 6.00 Build 0)  -->
<svg version="1.1" id="Ebene_1" xmlns="http://www.w3.org/2000/svg" xmlns:xlink="http://www.w3.org/1999/xlink" x="0px" y="0px"
	 viewBox="0 0 453.5 453.5" style="enable-background:new 0 0 453.5 453.5;" xml:space="preserve">
<g>
	<path d="M375,137.9l34.8-24.4l-14.6-20.9l-27.2,19.1l-7.1-26.2H119.9v25.5h221.4l4.4,16.3l-118.1,82.9h-4.2L55.8,92.6l-14.6,20.9
		l137.9,96.8h-9.6c-51.1,0-69.2,22.3-89.3,53.9c-7.8,12.3-36.7,58.8-53.1,85.4L15,369h422.4L375,137.9L375,137.9z M169.5,235.8h21.7
		l-112.6,79c10.2-16.4,19.2-30.9,23.1-37C119.3,250.2,130.3,235.8,169.5,235.8L169.5,235.8z M225.5,242.8l143.4,100.7H82.1
		L225.5,242.8L225.5,242.8z M259.8,235.8H375l26.9,99.8L259.8,235.8L259.8,235.8z M368.1,210.3h-96.2l80.9-56.8L368.1,210.3
		L368.1,210.3z"/>
</g>
</svg>
