<?xml version="1.0" encoding="utf-8"?>
<!-- Generator: Adobe Illustrator 23.0.4, SVG Export Plug-In . SVG Version: 6.00 Build 0)  -->
<svg version="1.1" id="Ebene_1" xmlns="http://www.w3.org/2000/svg" xmlns:xlink="http://www.w3.org/1999/xlink" x="0px" y="0px"
	 viewBox="0 0 453.5 453.5" style="enable-background:new 0 0 453.5 453.5;" xml:space="preserve">
<g>
	<path d="M363.5,146.5l47-33l-14.6-20.9l-47.1,33.1c-29.1-34.9-73-57.2-121.9-57.2c-49.2,0-93.3,22.5-122.4,57.8l-48-33.7L42,113.5
		l48,33.7c-13.8,23.5-21.7,50.9-21.7,80.1c0,29.2,7.9,56.6,21.7,80.1l-48,33.7l14.6,20.9l48-33.7C133.7,363.5,177.7,386,227,386
		c48.9,0,92.7-22.2,121.9-57.2l47.1,33.1l14.6-20.9l-47-33c14.1-23.7,22.2-51.3,22.2-80.8C385.7,197.8,377.6,170.2,363.5,146.5
		L363.5,146.5z M342.6,293.4l-94.2-66.1l94.2-66.1c11.2,19.5,17.6,42,17.6,66.1C360.2,251.3,353.7,273.9,342.6,293.4L342.6,293.4z
		 M125.5,313.5l100.7-70.7l101.6,71.3c-24.5,28.4-60.6,46.4-100.9,46.4C186.4,360.5,150,342.2,125.5,313.5L125.5,313.5z
		 M110.9,161.9l93.2,65.4l-93.2,65.4C100,273.3,93.7,251,93.7,227.3C93.7,203.5,100,181.2,110.9,161.9L110.9,161.9z M327.8,140.4
		l-101.6,71.3L125.5,141c24.5-28.7,60.8-47,101.4-47C267.2,94.1,303.4,112.1,327.8,140.4L327.8,140.4z"/>
</g>
</svg>
