<?xml version="1.0" encoding="utf-8"?>
<!-- Generator: Adobe Illustrator 23.0.4, SVG Export Plug-In . SVG Version: 6.00 Build 0)  -->
<svg version="1.1" id="Ebene_1" xmlns="http://www.w3.org/2000/svg" xmlns:xlink="http://www.w3.org/1999/xlink" x="0px" y="0px"
	 viewBox="0 0 453.5 453.5" style="enable-background:new 0 0 453.5 453.5;" xml:space="preserve">
<g>
	<polygon points="395.2,361.9 41.2,113.5 55.8,92.6 409.7,341.1 395.2,361.9 	"/>
	<path d="M437.4,85.5L437.4,85.5l-25.9,0l-4.3,24.3l-12-17.2l-23.9,16.8c-6.2-4-13.8-6.9-23.7-6.9c-20.7,0-31.6,12.5-39.5,21.7
		c-7.5,8.6-11.8,13.1-20.8,13.1c-9,0-13.3-4.5-20.8-13.1c-7.9-9.1-18.8-21.7-39.5-21.7c-20.7,0-31.6,12.5-39.5,21.7
		c-7.5,8.6-11.8,13.1-20.8,13.1c-9,0-13.3-4.5-20.8-13.1c-7.9-9.1-18.8-21.7-39.5-21.7c-20.7,0-31.6,12.5-39.5,21.7
		c-6.3,7.3-10.4,11.6-16.8,12.8l-9-51.5H15l0,0l42.7,244l-16.5,11.6l14.6,20.9l6.7-4.7l2.1,11.8h323.2L437.4,85.5L437.4,85.5z
		 M85.6,341l283.9-199.3c6.5,7.4,14.9,16.4,28.7,19.4l-31.9,182.4H86L85.6,341L85.6,341z M287.2,162.1c4,0,7.6-0.5,10.8-1.3
		L80.8,313.3L54.2,161.4c15.5-2.8,24.5-13.1,31.3-21c7.5-8.6,11.8-13.1,20.8-13.1c9,0,13.3,4.5,20.8,13.1
		c7.9,9.1,18.8,21.7,39.5,21.7c20.7,0,31.6-12.5,39.5-21.7c7.5-8.6,11.8-13.1,20.8-13.1c9,0,13.3,4.5,20.8,13.1
		C255.6,149.6,266.5,162.1,287.2,162.1L287.2,162.1z M345.7,127.3L326,141.1c0.2-0.2,0.4-0.5,0.6-0.7
		C333.7,132.4,337.9,127.9,345.7,127.3L345.7,127.3z M406.1,116l-3.6,20.7c-4.7-1.3-8.3-4.4-12.6-9.3L406.1,116L406.1,116z"/>
</g>
</svg>
