<?xml version="1.0" encoding="utf-8"?>
<!-- Generator: Adobe Illustrator 23.0.4, SVG Export Plug-In . SVG Version: 6.00 Build 0)  -->
<svg version="1.1" id="Ebene_1" xmlns="http://www.w3.org/2000/svg" xmlns:xlink="http://www.w3.org/1999/xlink" x="0px" y="0px"
	 viewBox="0 0 453.5 453.5" style="enable-background:new 0 0 453.5 453.5;" xml:space="preserve">
<g>
	<path d="M437.4,99.1L437.4,99.1h-25.9l-9,51.2c-5.7-1.5-9.6-5.7-15.5-12.5c-7.9-9.1-18.8-21.7-39.5-21.7
		c-20.7,0-31.6,12.5-39.5,21.7c-1.4,1.6-2.7,3.1-4,4.4V135h0c-0.2-27.8-17-51.8-41-62.4v14.2c16.9,9.6,28.3,27.8,28.3,48.6v121.3
		l0,0.7c0.1,1.2,0.2,6.6-2.1,9.1c-0.6,0.7-1.7,1.5-4.4,1.5c-2.7,0-3.8-0.9-4.3-1.5c-1.6-1.8-2.1-4.9-2.1-7.2V258c0-0.2,0-0.5,0-0.6
		l0-0.3v-64h-12.7v0h-0.1v64.8c0,0.5,0,1.1,0,1.7v35.5l0,0.7c0.1,1.2,0.2,6.6-2.1,9.2c-0.6,0.7-1.7,1.5-4.4,1.5
		c-2.7,0-3.8-0.9-4.3-1.5c-1.6-1.7-2.1-4.9-2.1-7.1v-1.6c0-0.2,0-0.4,0-0.6l0-0.3V193.2h-12.7v103c0,0.6,0,1.2,0,2v9.3l0,0.7
		c0.2,1.6,0.1,6.7-2.1,9.2c-0.6,0.7-1.7,1.5-4.3,1.5c-2.7,0-3.8-0.9-4.3-1.5c-2.2-2.4-2.3-7.6-2.1-9.2l0-0.3V299
		c0.1-1.4,0-2.5,0-3.4V193.2h-12.7v102l0,0.7c0,0,0,0.1,0,0.2v2.5c-0.1,2.2-0.6,5-2.1,6.6c-0.6,0.7-1.7,1.5-4.3,1.5
		c-2.7,0-3.8-0.9-4.3-1.5c-2.2-2.4-2.3-7.6-2.1-9.2l0-0.3V193.2h-12.7v101.7c-0.2,2.3-0.6,12,5.3,18.6c2.4,2.6,6.7,5.8,13.8,5.8
		c3,0,5.5-0.5,7.5-1.4c0.8,2.7,2.1,5.5,4.2,7.8c2.4,2.6,6.7,5.8,13.8,5.8c7.1,0,11.4-3.1,13.8-5.8c2.1-2.4,3.4-5.2,4.2-7.9
		c2.1,0.8,4.5,1.4,7.5,1.4c7.1,0,11.4-3.1,13.8-5.8c5.9-6.6,5.5-16.3,5.3-18.6v-15.1c1.8,0.6,4,1,6.5,1c7.1,0,11.4-3.1,13.8-5.8
		c5.9-6.6,5.5-16.3,5.3-18.6v-84c10.4-4.3,17.2-12.1,22.6-18.4c7.5-8.6,11.8-13.1,20.8-13.1c9,0,13.3,4.5,20.8,13.1
		c6.6,7.6,15.2,17.6,29.9,20.7l-31.9,182.4H86L54.2,174.9c15.5-2.8,24.5-13.1,31.3-21c7.5-8.6,11.8-13.1,20.8-13.1
		c9,0,13.3,4.5,20.8,13.1c4.6,5.3,10.3,11.8,18.3,16.3v56.1c-0.2,2.3-0.6,12,5.3,18.6c2.4,2.6,6.7,5.8,13.8,5.8
		c7.2,0,11.5-3.1,13.8-5.8c5.9-6.6,5.5-16.3,5.3-18.6v-55.6c11.7-2.2,22.3-7.4,31.1-14.7v-18c-10.3,12.9-26.1,21.2-43.8,21.2v7.1h0
		v60.4l0,0.7c0.1,1.2,0.2,6.6-2.1,9.1c-0.6,0.7-1.7,1.6-4.4,1.6c-2.7,0-3.8-0.9-4.4-1.5c-2.2-2.5-2.3-7.6-2.1-9.2l0-0.3v-91.5h0
		c0-21.9,12.7-40.9,31.1-50.1V71.5c-25.2,9.8-43.2,34.2-43.7,62.7h0v3.1c-7.9-9.1-18.7-21.3-39.1-21.3c-20.7,0-31.6,12.5-39.5,21.7
		c-6.3,7.3-10.4,11.6-16.8,12.8l-9-51.5H15h0l49.6,283.5h323.2L437.4,99.1L437.4,99.1z"/>
</g>
</svg>
