<svg xmlns="http://www.w3.org/2000/svg" viewBox="0 0 453.5 453.5" style="enable-background:new 0 0 453.5 453.5" xml:space="preserve"><path d="M437.4 99.1h-25.9l-9 51.2c-5.7-1.5-9.6-5.7-15.5-12.5-7.9-9.1-18.8-21.7-39.5-21.7s-31.6 12.5-39.5 21.7c-1.4 1.6-2.7 3.1-4 4.4V135c-.2-27.8-17-51.8-41-62.4v14.2c16.9 9.6 28.3 27.8 28.3 48.6v122c.1 1.2.2 6.6-2.1 9.1-.6.7-1.7 1.5-4.4 1.5s-3.8-.9-4.3-1.5c-1.6-1.8-2.1-4.9-2.1-7.2v-66.2h-12.8v102.7c.1 1.2.2 6.6-2.1 9.2-.6.7-1.7 1.5-4.4 1.5s-3.8-.9-4.3-1.5c-1.6-1.7-2.1-4.9-2.1-7.1V193.2H240v115c.2 1.6.1 6.7-2.1 9.2-.6.7-1.7 1.5-4.3 1.5-2.7 0-3.8-.9-4.3-1.5-2.2-2.4-2.3-7.6-2.1-9.2V299c.1-1.4 0-2.5 0-3.4V193.2h-12.7v105.4c-.1 2.2-.6 5-2.1 6.6-.6.7-1.7 1.5-4.3 1.5-2.7 0-3.8-.9-4.3-1.5-2.2-2.4-2.3-7.6-2.1-9.2V193.2H189v101.7c-.2 2.3-.6 12 5.3 18.6 2.4 2.6 6.7 5.8 13.8 5.8 3 0 5.5-.5 7.5-1.4.8 2.7 2.1 5.5 4.2 7.8 2.4 2.6 6.7 5.8 13.8 5.8 7.1 0 11.4-3.1 13.8-5.8 2.1-2.4 3.4-5.2 4.2-7.9 2.1.8 4.5 1.4 7.5 1.4 7.1 0 11.4-3.1 13.8-5.8 5.9-6.6 5.5-16.3 5.3-18.6v-15.1c1.8.6 4 1 6.5 1 7.1 0 11.4-3.1 13.8-5.8 5.9-6.6 5.5-16.3 5.3-18.6v-84c10.4-4.3 17.2-12.1 22.6-18.4 7.5-8.6 11.8-13.1 20.8-13.1s13.3 4.5 20.8 13.1c6.6 7.6 15.2 17.6 29.9 20.7L366 357H86L54.2 174.9c15.5-2.8 24.5-13.1 31.3-21 7.5-8.6 11.8-13.1 20.8-13.1s13.3 4.5 20.8 13.1c4.6 5.3 10.3 11.8 18.3 16.3v56.1c-.2 2.3-.6 12 5.3 18.6 2.4 2.6 6.7 5.8 13.8 5.8 7.2 0 11.5-3.1 13.8-5.8 5.9-6.6 5.5-16.3 5.3-18.6v-55.6c11.7-2.2 22.3-7.4 31.1-14.7v-18c-10.3 12.9-26.1 21.2-43.8 21.2v68.2c.1 1.2.2 6.6-2.1 9.1-.6.7-1.7 1.6-4.4 1.6s-3.8-.9-4.4-1.5c-2.2-2.5-2.3-7.6-2.1-9.2v-91.8c0-21.9 12.7-40.9 31.1-50.1v-14c-25.2 9.8-43.2 34.2-43.7 62.7v3.1c-7.9-9.1-18.7-21.3-39.1-21.3-20.7 0-31.6 12.5-39.5 21.7-6.3 7.3-10.4 11.6-16.8 12.8l-9-51.5H15l49.6 283.5h323.2l49.6-283.4z"/></svg>
