<svg xmlns="http://www.w3.org/2000/svg" viewBox="0 0 453.5 453.5" style="enable-background:new 0 0 453.5 453.5" xml:space="preserve"><path d="M437.4 369 360.8 85.5H119.9V111h221.4l26.8 99.2H169.5c-51.1 0-69.2 22.3-89.3 53.9-7.8 12.3-36.7 58.8-53.1 85.4L15 369h422.4zM375 235.8l29.1 107.7H60.8c15.9-25.6 34.8-56.1 40.9-65.7 17.6-27.6 28.6-42 67.8-42H375zm-56.9 53.8c0-9.4-7.6-17-17-17s-17 7.6-17 17 7.6 17 17 17 17-7.6 17-17zm-59.6 0c0-9.4-7.6-17-17-17s-17 7.6-17 17 7.6 17 17 17 17-7.6 17-17zm-59.5 0c0-9.4-7.6-17-17-17s-17 7.6-17 17 7.6 17 17 17 17-7.6 17-17z"/></svg>
