<?xml version="1.0" encoding="utf-8"?>
<!-- Generator: Adobe Illustrator 23.0.4, SVG Export Plug-In . SVG Version: 6.00 Build 0)  -->
<svg version="1.1" id="Ebene_1" xmlns="http://www.w3.org/2000/svg" xmlns:xlink="http://www.w3.org/1999/xlink" x="0px" y="0px"
	 viewBox="0 0 453.5 453.5" style="enable-background:new 0 0 453.5 453.5;" xml:space="preserve">
<g>
	<path d="M437.4,59.5L437.4,59.5h-25.9l-9,51.2c-5.7-1.5-9.6-5.7-15.5-12.5c-7.9-9.1-18.8-21.7-39.5-21.7S315.9,89.1,308,98.2
		c-7.5,8.6-11.8,13.1-20.8,13.1c-9,0-13.3-4.5-20.8-13.1c-7.9-9.1-18.8-21.7-39.5-21.7c-20.7,0-31.6,12.5-39.5,21.7
		c-7.5,8.6-11.8,13.1-20.8,13.1c-9,0-13.3-4.5-20.8-13.1c-7.9-9.1-18.8-21.7-39.5-21.7c-20.7,0-31.6,12.5-39.5,21.7
		c-6.3,7.3-10.4,11.6-16.8,12.8l-9-51.5H15h0L64.6,343h323.2L437.4,59.5L437.4,59.5z M398.2,135.1l-31.9,182.4H86L54.2,135.4
		c15.5-2.8,24.5-13.1,31.3-21c7.5-8.6,11.8-13.1,20.8-13.1c9,0,13.3,4.5,20.8,13.1c7.9,9.1,18.8,21.7,39.5,21.7
		c20.7,0,31.6-12.5,39.5-21.7c7.5-8.6,11.8-13.1,20.8-13.1c9,0,13.3,4.5,20.8,13.1c7.9,9.1,18.8,21.7,39.5,21.7
		c20.7,0,31.6-12.5,39.5-21.7c7.5-8.6,11.8-13.1,20.8-13.1s13.3,4.5,20.8,13.1C375,122,383.6,132,398.2,135.1L398.2,135.1z
		 M304.9,228.1c0-23.8-6.2-54.6-36.3-54.6c-30.1,0-36.3,30.8-36.3,54.6s6.1,54.6,36.3,54.6C298.8,282.7,304.9,252,304.9,228.1
		L304.9,228.1z M287.8,228.1c0,21.9-4.2,40.4-19.2,40.4c-15,0-19.2-18.4-19.2-40.4s4.2-40.4,19.2-40.4
		C283.6,187.8,287.8,206.2,287.8,228.1L287.8,228.1z M201.7,224.4v-0.3c10-3.6,14.9-12,14.9-22.5c0-18.6-16.8-28.1-33.2-28.1
		c-21.1,0-33.9,15.3-34.8,35.7h17.1c-0.3-10.8,5.5-21.5,17.4-21.5c9.5,0,16.4,6,16.4,14.9c0,12.9-11.9,16.9-23.2,16.5v12.8
		c13.5-0.6,27.4,1.5,27.4,17.9c0,12-8.7,18.8-20.1,18.8c-13.3,0-20.3-9.6-19.8-22.4h-17.1c0.4,21.9,12.6,36.6,36.9,36.6
		c20.1,0,37.2-12.3,37.2-32.1C220.8,237.1,213.6,226.8,201.7,224.4L201.7,224.4z M387.8,368.5H64.6V394h323.1V368.5L387.8,368.5z"/>
</g>
</svg>
