<?xml version="1.0" encoding="utf-8"?>
<!-- Generator: Adobe Illustrator 23.0.4, SVG Export Plug-In . SVG Version: 6.00 Build 0)  -->
<svg version="1.1" id="Ebene_1" xmlns="http://www.w3.org/2000/svg" xmlns:xlink="http://www.w3.org/1999/xlink" x="0px" y="0px"
	 viewBox="0 0 453.5 453.5" style="enable-background:new 0 0 453.5 453.5;" xml:space="preserve">
<g>
	<path d="M437.4,85.5L437.4,85.5l-25.9,0l-9,51.2c-5.7-1.5-9.6-5.7-15.5-12.5c-7.9-9.1-18.8-21.7-39.5-21.7
		c-20.7,0-31.6,12.5-39.5,21.7c-7.5,8.6-11.8,13.1-20.8,13.1c-9,0-13.3-4.5-20.8-13.1c-7.9-9.1-18.8-21.7-39.5-21.7
		c-20.7,0-31.6,12.5-39.5,21.7c-7.5,8.6-11.8,13.1-20.8,13.1c-9,0-13.3-4.5-20.8-13.1c-7.9-9.1-18.8-21.7-39.5-21.7
		c-20.7,0-31.6,12.5-39.5,21.7c-6.3,7.3-10.4,11.6-16.8,12.8l-9-51.5H15l0,0L64.6,369h323.2L437.4,85.5L437.4,85.5z M398.2,161.1
		l-31.9,182.4H86L54.2,161.4c15.5-2.8,24.5-13.1,31.3-21c7.5-8.6,11.8-13.1,20.8-13.1s13.3,4.5,20.8,13.1
		c7.9,9.1,18.8,21.7,39.5,21.7c20.7,0,31.6-12.5,39.5-21.7c7.5-8.6,11.8-13.1,20.8-13.1c9,0,13.3,4.5,20.8,13.1
		c7.9,9.1,18.8,21.7,39.5,21.7c20.7,0,31.6-12.5,39.5-21.7c7.5-8.6,11.8-13.1,20.8-13.1c9,0,13.3,4.5,20.8,13.1
		C375,148,383.6,158,398.2,161.1L398.2,161.1z M253,243.9l-0.3-0.3l5.4-26.7h41.5v-15.3h-54.3l-11.2,57.5h17.1
		c2.7-7.4,9.7-9.6,16.9-9.6c13.8,0,20,10.4,20,21.9c0,12.8-5,23.1-19.5,23.1c-11.1,0-18.3-6.5-19.4-17.7h-17.1
		c0.8,21,16.5,32,36.7,32c25.8,0,36.3-20.9,36.3-37.6c0-20.1-12-35.1-32.9-35.1C265.3,236,257.7,238.8,253,243.9L253,243.9z
		 M220.3,254.4c0-30.6-7.4-54.9-37-54.9c-23,0-36.2,15.4-36.2,35.8c0,21.5,13.3,35.4,33.2,35.4c9.6,0,18.1-4.5,22.6-12.6l0.3,0.3
		c-1.1,13.8-3.1,36-21.8,36c-8.8,0-14.6-5.9-15.3-14.4h-17.1c0.9,17.1,15,28.6,31.6,28.6C210.4,308.7,220.3,279.5,220.3,254.4
		L220.3,254.4z M201.6,235.2c0,11.6-6.3,22-19,22c-12.5,0-18.3-10.6-18.3-22c0-11.4,5.9-21.4,18.3-21.4
		C195.3,213.8,201.6,224,201.6,235.2L201.6,235.2z"/>
</g>
</svg>
