<svg xmlns="http://www.w3.org/2000/svg" viewBox="0 0 453.5 453.5" style="enable-background:new 0 0 453.5 453.5" xml:space="preserve"><path d="M437.4 85.5h-25.9l-9 51.2c-5.7-1.5-9.6-5.7-15.5-12.5-7.9-9.1-18.8-21.7-39.5-21.7S315.9 115 308 124.2c-7.5 8.6-11.8 13.1-20.8 13.1s-13.3-4.5-20.8-13.1c-7.9-9.1-18.8-21.7-39.5-21.7s-31.6 12.5-39.5 21.7c-7.5 8.6-11.8 13.1-20.8 13.1s-13.3-4.5-20.8-13.1c-7.9-9.1-18.8-21.7-39.5-21.7S74.7 115 66.8 124.2c-6.3 7.3-10.4 11.6-16.8 12.8l-9-51.5H15L64.6 369h323.2l49.6-283.5zm-39.2 75.6-31.9 182.4H86L54.2 161.4c15.5-2.8 24.5-13.1 31.3-21 7.5-8.6 11.8-13.1 20.8-13.1s13.3 4.5 20.8 13.1c7.9 9.1 18.8 21.7 39.5 21.7s31.6-12.5 39.5-21.7c7.5-8.6 11.8-13.1 20.8-13.1s13.3 4.5 20.8 13.1c7.9 9.1 18.8 21.7 39.5 21.7s31.6-12.5 39.5-21.7c7.5-8.6 11.8-13.1 20.8-13.1s13.3 4.5 20.8 13.1c6.7 7.6 15.3 17.6 29.9 20.7zm-93.3 93c0-23.8-6.1-54.6-36.3-54.6-30.1 0-36.3 30.8-36.3 54.6 0 23.9 6.1 54.6 36.3 54.6 30.2 0 36.3-30.7 36.3-54.6zm-17.1 0c0 21.9-4.2 40.4-19.2 40.4s-19.2-18.5-19.2-40.4 4.2-40.3 19.2-40.3 19.2 18.4 19.2 40.3zm-81 27.6h13.5v-13.5h-13.5v-66.6h-16.2l-45 63.1v17h45v24.9h16.2v-24.9zm-16.2-13.5h-31.8l31.5-46.2h.3v46.2z"/></svg>
