<svg xmlns="http://www.w3.org/2000/svg" viewBox="0 0 453.5 453.5" style="enable-background:new 0 0 453.5 453.5" xml:space="preserve"><path d="M437.4 59.5h-25.9l-9 51.2c-5.7-1.5-9.6-5.7-15.5-12.5-7.9-9.1-18.8-21.7-39.5-21.7S315.9 89 308 98.2c-7.5 8.6-11.8 13.1-20.8 13.1s-13.3-4.5-20.8-13.1c-7.9-9.1-18.8-21.7-39.5-21.7S195.3 89 187.4 98.2c-7.5 8.6-11.8 13.1-20.8 13.1s-13.3-4.5-20.8-13.1c-7.9-9.1-18.8-21.7-39.5-21.7S74.7 89 66.8 98.2c-6.3 7.3-10.4 11.6-16.8 12.8l-9-51.5H15L64.6 343h323.2l49.6-283.5zm-39.2 75.6-31.9 182.4H86L54.2 135.4c15.5-2.8 24.5-13.1 31.3-21 7.5-8.6 11.8-13.1 20.8-13.1s13.3 4.5 20.8 13.1c7.9 9.1 18.8 21.7 39.5 21.7s31.6-12.5 39.5-21.7c7.5-8.6 11.8-13.1 20.8-13.1s13.3 4.5 20.8 13.1c7.9 9.1 18.8 21.7 39.5 21.7s31.6-12.5 39.5-21.7c7.5-8.6 11.8-13.1 20.8-13.1s13.3 4.5 20.8 13.1c6.7 7.6 15.3 17.6 29.9 20.7zm-93.3 93c0-23.8-6.2-54.6-36.3-54.6-30.1 0-36.3 30.8-36.3 54.6s6.1 54.6 36.3 54.6c30.2 0 36.3-30.7 36.3-54.6zm-17.1 0c0 21.9-4.2 40.4-19.2 40.4s-19.2-18.4-19.2-40.4 4.2-40.4 19.2-40.4c15 .1 19.2 18.5 19.2 40.4zm-123.3-4-.3-.3c1-13.8 3.1-36 21.7-36 8.9 0 14.5 5.9 15.3 14.4h17.1c-.9-17.1-15-28.7-31.6-28.7-29.7 0-39.6 29.3-39.6 54.3 0 30.6 7.4 54.9 38.2 54.9 21 0 35-15.4 35-35.9 0-20.1-12.3-35.2-33.2-35.2-9.2 0-17.9 4.2-22.6 12.5zm1.4 22.5c0-11.5 6.4-21.4 18.9-21.4 12.3 0 18.5 10.2 18.5 21.4 0 11.3-6.1 21.9-18.5 21.9-12.5 0-18.9-10.5-18.9-21.9zm221.9 121.9H64.6V394h323.1v-25.5h.1z"/></svg>
