<?xml version="1.0" encoding="utf-8"?>
<!-- Generator: Adobe Illustrator 23.0.4, SVG Export Plug-In . SVG Version: 6.00 Build 0)  -->
<svg version="1.1" id="Ebene_1" xmlns="http://www.w3.org/2000/svg" xmlns:xlink="http://www.w3.org/1999/xlink" x="0px" y="0px"
	 viewBox="0 0 453.5 453.5" style="enable-background:new 0 0 453.5 453.5;" xml:space="preserve">
<g>
	<path d="M437.4,85.5L437.4,85.5l-25.9,0l-9,51.2c-5.7-1.5-9.6-5.7-15.5-12.5c-7.9-9.1-18.8-21.7-39.5-21.7
		c-20.7,0-31.6,12.5-39.5,21.7c-7.5,8.6-11.8,13.1-20.8,13.1c-9,0-13.3-4.5-20.8-13.1c-7.9-9.1-18.8-21.7-39.5-21.7
		c-20.7,0-31.6,12.5-39.5,21.7c-7.5,8.6-11.8,13.1-20.8,13.1c-9,0-13.3-4.5-20.8-13.1c-7.9-9.1-18.8-21.7-39.5-21.7
		c-20.7,0-31.6,12.5-39.5,21.7c-6.3,7.3-10.4,11.6-16.8,12.8l-9-51.5H15l0,0L64.6,369h323.2L437.4,85.5L437.4,85.5z M398.2,161.1
		l-31.9,182.4H86L54.2,161.4c15.5-2.8,24.5-13.1,31.3-21c7.5-8.6,11.8-13.1,20.8-13.1c9,0,13.3,4.5,20.8,13.1
		c7.9,9.1,18.8,21.7,39.5,21.7c20.7,0,31.6-12.5,39.5-21.7c7.5-8.6,11.8-13.1,20.8-13.1c9,0,13.3,4.5,20.8,13.1
		c7.9,9.1,18.8,21.7,39.5,21.7c20.7,0,31.6-12.5,39.5-21.7c7.5-8.6,11.8-13.1,20.8-13.1c9,0,13.3,4.5,20.8,13.1
		C375,148,383.6,158,398.2,161.1L398.2,161.1z M304.9,254.1c0-23.8-6.1-54.6-36.3-54.6c-30.1,0-36.3,30.8-36.3,54.6
		c0,23.9,6.1,54.6,36.3,54.6C298.8,308.7,304.9,278,304.9,254.1L304.9,254.1z M287.8,254.1c0,21.9-4.2,40.4-19.2,40.4
		c-15,0-19.2-18.5-19.2-40.4s4.2-40.3,19.2-40.3C283.6,213.8,287.8,232.2,287.8,254.1L287.8,254.1z M206.8,281.7h13.5v-13.5h-13.5
		v-66.6h-16.2l-45,63.1v17h45v24.9h16.2V281.7L206.8,281.7z M190.6,268.2h-31.8l31.5-46.2h0.3V268.2L190.6,268.2z"/>
</g>
</svg>
