<?xml version="1.0" encoding="utf-8"?>
<!-- Generator: Adobe Illustrator 23.0.4, SVG Export Plug-In . SVG Version: 6.00 Build 0)  -->
<svg version="1.1" id="Ebene_1" xmlns="http://www.w3.org/2000/svg" xmlns:xlink="http://www.w3.org/1999/xlink" x="0px" y="0px"
	 viewBox="0 0 453.5 453.5" style="enable-background:new 0 0 453.5 453.5;" xml:space="preserve">
<g>
	<path d="M437.4,59.5L437.4,59.5h-25.9l-9,51.2c-5.7-1.5-9.6-5.7-15.5-12.5c-7.9-9.1-18.8-21.7-39.5-21.7
		c-20.7,0-31.6,12.5-39.5,21.7c-7.5,8.6-11.8,13.1-20.8,13.1c-9,0-13.3-4.5-20.8-13.1c-7.9-9.1-18.8-21.7-39.5-21.7
		c-20.7,0-31.6,12.5-39.5,21.7c-7.5,8.6-11.8,13.1-20.8,13.1c-9,0-13.3-4.5-20.8-13.1c-7.9-9.1-18.8-21.7-39.5-21.7
		c-20.7,0-31.6,12.5-39.5,21.7c-6.3,7.3-10.4,11.6-16.8,12.8l-9-51.5H15h0L64.6,343h323.2L437.4,59.5L437.4,59.5z M398.2,135.1
		l-31.9,182.4H86L54.2,135.4c15.5-2.8,24.5-13.1,31.3-21c7.5-8.6,11.8-13.1,20.8-13.1c9,0,13.3,4.5,20.8,13.1
		c7.9,9.1,18.8,21.7,39.5,21.7c20.7,0,31.6-12.5,39.5-21.7c7.5-8.6,11.8-13.1,20.8-13.1c9,0,13.3,4.5,20.8,13.1
		c7.9,9.1,18.8,21.7,39.5,21.7c20.7,0,31.6-12.5,39.5-21.7c7.5-8.6,11.8-13.1,20.8-13.1c9,0,13.3,4.5,20.8,13.1
		C375,122,383.6,132,398.2,135.1L398.2,135.1z M304.9,228.1c0-23.8-6.2-54.6-36.3-54.6c-30.1,0-36.3,30.8-36.3,54.6
		s6.1,54.6,36.3,54.6C298.8,282.7,304.9,252,304.9,228.1L304.9,228.1z M287.8,228.1c0,21.9-4.2,40.4-19.2,40.4
		c-15,0-19.2-18.4-19.2-40.4s4.2-40.4,19.2-40.4C283.6,187.8,287.8,206.2,287.8,228.1L287.8,228.1z M164.5,224.1l-0.3-0.3
		c1-13.8,3.1-36,21.7-36c8.9,0,14.5,5.9,15.3,14.4h17.1c-0.9-17.1-15-28.7-31.6-28.7c-29.7,0-39.6,29.3-39.6,54.3
		c0,30.6,7.4,54.9,38.2,54.9c21,0,35-15.4,35-35.9c0-20.1-12.3-35.2-33.2-35.2C177.9,211.6,169.2,215.8,164.5,224.1L164.5,224.1z
		 M165.9,246.6c0-11.5,6.4-21.4,18.9-21.4c12.3,0,18.5,10.2,18.5,21.4c0,11.3-6.1,21.9-18.5,21.9C172.3,268.5,165.9,258,165.9,246.6
		L165.9,246.6z M387.8,368.5H64.6V394h323.1V368.5L387.8,368.5z"/>
</g>
</svg>
