<svg xmlns="http://www.w3.org/2000/svg" viewBox="0 0 453.5 453.5" style="enable-background:new 0 0 453.5 453.5" xml:space="preserve"><path d="M437.4 85.5h-25.9l-9 51.2c-5.7-1.5-9.6-5.7-15.5-12.5-7.9-9.1-18.8-21.7-39.5-21.7S315.9 115 308 124.2c-7.5 8.6-11.8 13.1-20.8 13.1s-13.3-4.5-20.8-13.1c-7.9-9.1-18.8-21.7-39.5-21.7s-31.6 12.5-39.5 21.7c-7.5 8.6-11.8 13.1-20.8 13.1s-13.3-4.5-20.8-13.1c-7.9-9.1-18.8-21.7-39.5-21.7S74.7 115 66.8 124.2c-6.3 7.3-10.4 11.6-16.8 12.8l-9-51.5H15L64.6 369h323.2l49.6-283.5zm-39.2 75.6-31.9 182.4H86L54.2 161.4c15.5-2.8 24.5-13.1 31.3-21 7.5-8.6 11.8-13.1 20.8-13.1s13.3 4.5 20.8 13.1c7.9 9.1 18.8 21.7 39.5 21.7s31.6-12.5 39.5-21.7c7.5-8.6 11.8-13.1 20.8-13.1s13.3 4.5 20.8 13.1c7.9 9.1 18.8 21.7 39.5 21.7s31.6-12.5 39.5-21.7c7.5-8.6 11.8-13.1 20.8-13.1s13.3 4.5 20.8 13.1c6.7 7.6 15.3 17.6 29.9 20.7zM253 243.9l-.3-.3 5.4-26.7h41.5v-15.3h-54.3l-11.2 57.5h17.1c2.7-7.4 9.7-9.6 16.9-9.6 13.8 0 20 10.4 20 21.9 0 12.8-5 23.1-19.5 23.1-11.1 0-18.3-6.5-19.4-17.7h-17.1c.8 21 16.5 32 36.7 32 25.8 0 36.3-20.9 36.3-37.6 0-20.1-12-35.1-32.9-35.1-6.9-.1-14.5 2.7-19.2 7.8zm-32.7 10.5c0-30.6-7.4-54.9-37-54.9-23 0-36.2 15.4-36.2 35.8 0 21.5 13.3 35.4 33.2 35.4 9.6 0 18.1-4.5 22.6-12.6l.3.3c-1.1 13.8-3.1 36-21.8 36-8.8 0-14.6-5.9-15.3-14.4H149c.9 17.1 15 28.6 31.6 28.6 29.8.1 39.7-29.1 39.7-54.2zm-18.7-19.2c0 11.6-6.3 22-19 22-12.5 0-18.3-10.6-18.3-22s5.9-21.4 18.3-21.4c12.7 0 19 10.2 19 21.4z"/></svg>
