<svg xmlns="http://www.w3.org/2000/svg" viewBox="0 0 453.5 453.5" style="enable-background:new 0 0 453.5 453.5" xml:space="preserve"><path d="M368.5 369V85.5H85V369h283.5zM343 343.5H110.5V111.1H343v232.4zM110.5 227.3c0 64.1 52.1 116.2 116.2 116.2S343 291.4 343 227.3s-52.1-116.2-116.2-116.2-116.3 52.1-116.3 116.2zm25.5 0c0-50 40.7-90.7 90.7-90.7s90.7 40.7 90.7 90.7-40.7 90.7-90.7 90.7-90.7-40.7-90.7-90.7zm44 0c0 9.4 7.6 17 17 17s17-7.6 17-17-7.6-17-17-17-17 7.6-17 17zm59.5 0c0 9.4 7.6 17 17 17s17-7.6 17-17-7.6-17-17-17-17 7.6-17 17z"/></svg>
