<svg xmlns="http://www.w3.org/2000/svg" viewBox="0 0 512 512" style="enable-background:new 0 0 512 512" xml:space="preserve"><path d="M481.5 30.6v450.7H30.8V30.6h450.7zM512.2 0H.2v512h512V0zM256 61.1c107.4 0 194.8 87.4 194.8 194.8S363.4 450.6 256 450.6 61.2 363.2 61.2 255.8 148.6 61.1 256 61.1zm0-30.7c-124.6 0-225.5 100.9-225.5 225.4s101 225.4 225.5 225.4 225.5-100.9 225.5-225.4S380.5 30.4 256 30.4zm-.1 196.6c-16.2 0-29.4 13.2-29.4 29.4s13.2 29.4 29.4 29.4 29.4-13.2 29.4-29.4-13.1-29.4-29.4-29.4z"/></svg>
