<?xml version="1.0" encoding="utf-8"?>
<!-- Generator: Adobe Illustrator 19.2.1, SVG Export Plug-In . SVG Version: 6.00 Build 0)  -->
<svg version="1.1" id="Ebene_1" xmlns="http://www.w3.org/2000/svg" xmlns:xlink="http://www.w3.org/1999/xlink" x="0px" y="0px"
	 viewBox="0 0 512 512" style="enable-background:new 0 0 512 512;" xml:space="preserve">
<path d="M481.5,30.6v450.7H30.8V30.6C30.8,30.6,481.5,30.6,481.5,30.6z M512.2,0H0.2v512h512V0z M256,61.1
	c107.4,0,194.8,87.4,194.8,194.8S363.4,450.6,256,450.6S61.2,363.2,61.2,255.8S148.6,61.1,256,61.1L256,61.1z M256,30.4
	c-124.6,0-225.5,100.9-225.5,225.4s101,225.4,225.5,225.4s225.5-100.9,225.5-225.4S380.5,30.4,256,30.4C256,30.4,256,30.4,256,30.4z
	 M255.9,227c-16.2,0-29.4,13.2-29.4,29.4s13.2,29.4,29.4,29.4s29.4-13.2,29.4-29.4S272.2,227,255.9,227L255.9,227z"/>
</svg>
