<svg xmlns="http://www.w3.org/2000/svg" fill="none" class="max-w-full" viewBox="0 0 108 28">
  <path fill="#14FFA8" fill-rule="evenodd"
    d="M17.244 23.5c.802 0 1.287.28 1.703.677l-.491.566c-.348-.323-.721-.54-1.218-.54-.833 0-1.436.683-1.436 1.54 0 .859.603 1.555 1.436 1.555.534 0 .876-.218 1.249-.566l.49.497c-.453.473-.95.771-1.764.771C15.945 28 15 27.012 15 25.756c0-1.243.926-2.256 2.244-2.256Zm32.266 0c.801 0 1.286.28 1.703.677l-.492.566c-.347-.323-.72-.54-1.218-.54-.833 0-1.435.683-1.435 1.54 0 .859.602 1.555 1.435 1.555.535 0 .877-.218 1.25-.566l.49.497c-.453.473-.95.771-1.765.771-1.268 0-2.212-.988-2.212-2.244 0-1.243.926-2.256 2.244-2.256Zm22.233 0c.758 0 1.224.211 1.672.59l-.485.579c-.336-.286-.665-.467-1.218-.467-.802 0-1.411.696-1.411 1.542 0 .901.59 1.56 1.48 1.56.41 0 .782-.13 1.05-.33v-.814h-1.113v-.665h1.852v1.828a2.774 2.774 0 0 1-1.815.677c-1.36 0-2.256-.97-2.256-2.244 0-1.224.932-2.256 2.244-2.256Zm-49.502 0c1.336 0 2.269 1.013 2.269 2.244 0 1.23-.945 2.256-2.281 2.256-1.337 0-2.269-1.013-2.269-2.244 0-1.23.945-2.256 2.28-2.256Zm42.735.075 2.33 3.008v-3.008h.752v4.35h-.64L65.02 24.83v3.095h-.752v-4.35h.709Zm-38.212 0 1.324 2.057 1.324-2.057h.814v4.35h-.764v-3.12l-1.374 2.051h-.025l-1.36-2.038v3.107h-.753v-4.35h.814Zm17.686 0c1.001 0 1.616.528 1.616 1.38 0 .72-.428 1.156-1.038 1.323l1.175 1.647h-.901l-1.07-1.516h-.956v1.516h-.765v-4.35h1.94Zm11.274 0v.683h-2.46v1.132h2.18v.683h-2.18v1.169h2.491v.683H52.5v-4.35h3.225Zm30.474 0v.683h-2.461v1.132h2.181v.683h-2.181v1.169h2.492v.683h-3.257v-4.35h3.226Zm-7.96 0 2.33 3.008v-3.008h.752v4.35h-.64l-2.4-3.095v3.095h-.75v-4.35h.707Zm-2.368 0v4.35h-.765v-4.35h.765Zm-43.178 0 1.324 2.057 1.324-2.057h.814v4.35h-.764v-3.12l-1.374 2.051h-.025l-1.361-2.038v3.107h-.752v-4.35h.814Zm30.096 0v.683h-2.462v1.132h2.182v.683h-2.182v1.169h2.493v.683h-3.257v-4.35h3.226Zm-21.756 0v.683H38.57v1.132h2.182v.683H38.57v1.169h2.493v.683h-3.257v-4.35h3.226Zm-18.803.627c-.864 0-1.467.69-1.467 1.542 0 .851.615 1.554 1.479 1.554.864 0 1.467-.69 1.467-1.542 0-.851-.616-1.554-1.48-1.554Zm22.16.069h-1.113v1.46h1.118c.547 0 .895-.286.895-.733 0-.479-.335-.727-.9-.727Z"
    clip-rule="evenodd" />
  <path fill="#000" fill-rule="evenodd"
    d="M25.692.255c2.086 0 3.986.795 5.41 2.089l-2.05 2.192c-.861-.933-2.049-1.519-3.36-1.519-2.697 0-4.756 2.35-4.756 5.129 0 2.777 2.06 5.128 4.756 5.128 1.359 0 2.584-.63 3.451-1.622l2.092 2.136A8.027 8.027 0 0 1 25.692 16c-4.602 0-7.997-3.561-7.997-7.872 0-4.312 3.395-7.873 7.997-7.873Zm-19.668 0c2.645 0 4.669 1.294 5.75 3.392L9.21 5.025C8.632 3.907 7.636 2.89 6.024 2.89c-1.334 0-2.316.773-2.316 1.63 0 2.812 8.592 1.601 8.592 6.963C12.3 14.288 9.753 16 6.325 16 3.161 16 .818 14.395 0 12.297l2.666-1.433c.586 1.372 1.973 2.502 3.751 2.502 1.91 0 2.71-.938 2.71-1.773C9.126 8.91.533 10.06.533 4.738c0-2.783 2.48-4.483 5.49-4.483Zm71.57.442V12.8h6.72v2.759h-9.887V.697h3.166Zm22.19 0v2.732h-7.206v3.22h6.607v2.69h-6.607v3.488h7.379v2.732H89.44V.697h10.343ZM105.825 0C107.026 0 108 .95 108 2.123c0 1.173-.974 2.123-2.175 2.123-1.201 0-2.175-.95-2.175-2.123 0-1.172.974-2.123 2.175-2.123Zm0 .622a1.49 1.49 0 0 0-1.478 1.501c0 .83.662 1.501 1.478 1.501a1.49 1.49 0 0 0 1.478-1.5c0-.289-.08-.557-.218-.786l-.655.652-.471-.47.664-.66a1.458 1.458 0 0 0-.798-.238Z"
    clip-rule="evenodd" />
  <path fill="#14FFA8" fill-rule="evenodd"
    d="m45.264.697 7.174 14.862h-3.665l-1.202-2.61h-2.87v-2.688h1.633l-2.646-5.747-2.645 5.747h1.632v2.689h-2.87l-1.201 2.609h-3.5L42.278.697h2.986Zm12.838 0 3.655 7.938L65.41.697h3.526l-5.55 11.496v3.366H59.96v-3.366L54.41.697h3.692Z"
    clip-rule="evenodd" />
</svg>
