<svg xmlns="http://www.w3.org/2000/svg" viewBox="0 0 20 20">
  <g fill="none" stroke="currentColor">
    <path stroke-width=".92" d="M15.992 15.553V7.96h0H4.008v7.593c0 .39.317.706.706.706h10.572c.39 0 .706-.316.706-.706z"/>
    <path fill="currentColor" stroke-width=".5" d="M5.027 9.436c-.83 0-1.52-.622-1.64-1.434h3.28a1.668 1.668 0 01-1.64 1.434zm3.316 0c-.832 0-1.52-.622-1.64-1.434h3.279a1.667 1.667 0 01-1.64 1.434zm3.315 0c-.83 0-1.52-.622-1.639-1.434h3.279a1.667 1.667 0 01-1.64 1.434zm3.316 0c-.832 0-1.52-.622-1.64-1.434h3.279a1.667 1.667 0 01-1.64 1.434z"/>
    <path stroke-width=".92" d="M4.547 3.741a.212.212 0 00-.204.155L3.293 7.69a.214.214 0 00.205.269h13.004a.212.212 0 00.204-.269l-1.05-3.794a.21.21 0 00-.203-.155H4.547z"/>
    <path fill="currentColor" stroke-width=".5" d="M6.686 3.741a.212.212 0 00-.204.155L5.432 7.69a.212.212 0 00.205.269h.832a.212.212 0 00.204-.156l1.05-3.794a.215.215 0 00-.036-.185.214.214 0 00-.169-.083h-.832zm3.718 0a.212.212 0 00-.204.155L9.15 7.69a.212.212 0 00.205.269h.832a.212.212 0 00.204-.156l1.05-3.794a.213.213 0 00-.205-.268h-.832 0zm3.85 0a.212.212 0 00-.204.155L13 7.69a.214.214 0 00.206.269h.831a.212.212 0 00.204-.156l1.05-3.794a.213.213 0 00-.204-.268h-.833z"/>
    <path stroke-width=".92" d="M5.72 16.259h2.999v-4.803H5.72v4.803h0zm5.134-5.346h2.999v3.401h-3v-3.4z"/>
  </g>
</svg>
