<svg width="132" height="185" viewBox="0 0 132 185" xmlns="http://www.w3.org/2000/svg"><g fill="none" fill-rule="evenodd"><rect fill="#F2F0F0" width="132" height="185" rx="6"/><rect fill="#FFF" x="10" y="10" width="112" height="145" rx="4"/><rect fill="#FFF" x="10" y="160" width="48" height="6" rx="2"/><rect fill="#FFF" x="10" y="169" width="58" height="6" rx="2"/><path d="M57.586 71.287 71.97 85.672a4 4 0 0 1-2.829 6.828h-28.77a4 4 0 0 1-2.828-6.828L51.93 71.287a4 4 0 0 1 5.657 0Z" fill="#F2F0F0"/><path d="m76.81 68.093 16.708 16.708a4.646 4.646 0 0 1-3.285 7.931H56.817a4.646 4.646 0 0 1-3.285-7.931L70.24 68.093a4.646 4.646 0 0 1 6.57 0Z" fill="#F2F0F0"/><circle fill="#F2F0F0" cx="57" cy="61" r="4"/></g></svg>
