<svg width="400" height="226" viewBox="0 0 400 226" fill="none" xmlns="http://www.w3.org/2000/svg"><g clip-path="url(#a)"><path fill="#fff" d="M0 0h400v226H0z"/><g style="mix-blend-mode:multiply" clip-path="url(#b)"><g opacity=".12" stroke="#000"><g clip-path="url(#c)"><path d="M421-41.5h-50.25v46H421zm-50.25 0H320.5v46h50.25zm-50.25 0h-50.25v46h50.25zm-50.25 0H220v46h50.25z"/></g><g clip-path="url(#d)"><path d="M421 4.5h-50.25v46H421zm-50.25 0H320.5v46h50.25zm-50.25 0h-50.25v46h50.25zm-50.25 0H220v46h50.25z"/></g><g clip-path="url(#e)"><path d="M421 50.5h-50.25v46H421zm-50.25 0H320.5v46h50.25zm-50.25 0h-50.25v46h50.25zm-50.25 0H220v46h50.25z"/></g><g clip-path="url(#f)"><path d="M421 96.5h-50.25v46H421zm-50.25 0H320.5v46h50.25zm-50.25 0h-50.25v46h50.25zm-50.25 0H220v46h50.25z"/></g><g clip-path="url(#g)"><path d="M421 142.5h-50.25v46H421zm-50.25 0H320.5v46h50.25zm-50.25 0h-50.25v46h50.25zm-50.25 0H220v46h50.25z"/></g><g clip-path="url(#h)"><path d="M421 188.5h-50.25v46H421zm-50.25 0H320.5v46h50.25zm-50.25 0h-50.25v46h50.25zm-50.25 0H220v46h50.25z"/></g></g><path transform="matrix(-1 0 0 1 565 -212)" fill="url(#i)" d="M0 0h344v400H0z"/><path transform="matrix(-1 0 0 1 565 -212)" fill="url(#j)" d="M0 0h344v400H0z"/><path transform="matrix(-1 0 0 1 565 -212)" fill="url(#k)" d="M0 0h344v400H0z"/></g><g style="mix-blend-mode:multiply" clip-path="url(#l)"><g opacity=".12" stroke="#000"><g clip-path="url(#m)"><path d="M-21-41.5h50.25v46H-21zm50.25 0H79.5v46H29.25zm50.25 0h50.25v46H79.5zm50.25 0H180v46h-50.25z"/></g><g clip-path="url(#n)"><path d="M-21 4.5h50.25v46H-21zm50.25 0H79.5v46H29.25zm50.25 0h50.25v46H79.5zm50.25 0H180v46h-50.25z"/></g><g clip-path="url(#o)"><path d="M-21 50.5h50.25v46H-21zm50.25 0H79.5v46H29.25zm50.25 0h50.25v46H79.5zm50.25 0H180v46h-50.25z"/></g><g clip-path="url(#p)"><path d="M-21 96.5h50.25v46H-21zm50.25 0H79.5v46H29.25zm50.25 0h50.25v46H79.5zm50.25 0H180v46h-50.25z"/></g><g clip-path="url(#q)"><path d="M-21 142.5h50.25v46H-21zm50.25 0H79.5v46H29.25zm50.25 0h50.25v46H79.5zm50.25 0H180v46h-50.25z"/></g><g clip-path="url(#r)"><path d="M-21 188.5h50.25v46H-21zm50.25 0H79.5v46H29.25zm50.25 0h50.25v46H79.5zm50.25 0H180v46h-50.25z"/></g></g><path transform="translate(-165 -212)" fill="url(#s)" d="M0 0h344v400H0z"/><path transform="translate(-165 -212)" fill="url(#t)" d="M0 0h344v400H0z"/><path transform="translate(-165 -212)" fill="url(#u)" d="M0 0h344v400H0z"/></g><g filter="url(#v)"><g clip-path="url(#w)"><path d="M130 13c0-6.627 5.373-12 12-12h116c6.627 0 12 5.373 12 12v163c0 6.627-5.373 12-12 12H142c-6.627 0-12-5.373-12-12z" fill="#FAFAFA"/><g filter="url(#x)"><mask id="z" fill="#fff"><path d="M138 17a8 8 0 0 1 8-8h108a8 8 0 0 1 8 8v124a8 8 0 0 1-8 8H146a8 8 0 0 1-8-8z"/></mask><path d="M138 17a8 8 0 0 1 8-8h108a8 8 0 0 1 8 8v124a8 8 0 0 1-8 8H146a8 8 0 0 1-8-8z" fill="#fff"/><path d="M146 10h108V8H146zm115 7v124h2V17zm-7 131H146v2h108zm-115-7V17h-2v124zm7 7a7 7 0 0 1-7-7h-2a9 9 0 0 0 9 9zm115-7a7 7 0 0 1-7 7v2a9 9 0 0 0 9-9zm-7-131a7 7 0 0 1 7 7h2a9 9 0 0 0-9-9zM146 8a9 9 0 0 0-9 9h2a7 7 0 0 1 7-7z" fill="url(#y)" mask="url(#z)"/><path d="M200 63.278c1.723-2.015 4.703-4.278 9.24-4.278 7.935 0 13.26 7.45 13.26 14.388C222.5 87.89 204.445 99 200 99s-22.5-11.11-22.5-25.612C177.5 66.45 182.825 59 190.76 59c4.538 0 7.518 2.263 9.24 4.278" fill="#EBEBEB"/></g><g filter="url(#A)"><mask id="C" fill="#fff"><path d="M138 174a6 6 0 0 1 6-6h36a6 6 0 1 1 0 12h-36a6 6 0 0 1-6-6"/></mask><path d="M138 174a6 6 0 0 1 6-6h36a6 6 0 1 1 0 12h-36a6 6 0 0 1-6-6" fill="#fff"/><path d="M144 169h36v-2h-36zm36 10h-36v2h36zm-36 0a5 5 0 0 1-5-5h-2a7 7 0 0 0 7 7zm41-5a5 5 0 0 1-5 5v2a7 7 0 0 0 7-7zm-5-5a5 5 0 0 1 5 5h2a7 7 0 0 0-7-7zm-36-2a7 7 0 0 0-7 7h2a5 5 0 0 1 5-5z" fill="url(#B)" mask="url(#C)"/></g><g filter="url(#D)"><mask id="F" fill="#fff"><path d="M138 159a6 6 0 0 1 6-6h78a6 6 0 1 1 0 12h-78a6 6 0 0 1-6-6"/></mask><path d="M138 159a6 6 0 0 1 6-6h78a6 6 0 1 1 0 12h-78a6 6 0 0 1-6-6" fill="#fff"/><path d="M144 154h78v-2h-78zm78 10h-78v2h78zm-78 0a5 5 0 0 1-5-5h-2a7 7 0 0 0 7 7zm83-5a5 5 0 0 1-5 5v2a7 7 0 0 0 7-7zm-5-5a5 5 0 0 1 5 5h2a7 7 0 0 0-7-7zm-78-2a7 7 0 0 0-7 7h2a5 5 0 0 1 5-5z" fill="url(#E)" mask="url(#F)"/></g></g></g></g><defs><clipPath id="a"><path fill="#fff" d="M0 0h400v226H0z"/></clipPath><clipPath id="b"><path fill="#fff" d="M565-212H221v400h344z"/></clipPath><clipPath id="c"><path fill="#fff" d="M522-42H-82V5h604z"/></clipPath><clipPath id="d"><path fill="#fff" d="M522 4H-82v47h604z"/></clipPath><clipPath id="e"><path fill="#fff" d="M522 50H-82v47h604z"/></clipPath><clipPath id="f"><path fill="#fff" d="M522 96H-82v47h604z"/></clipPath><clipPath id="g"><path fill="#fff" d="M522 142H-82v47h604z"/></clipPath><clipPath id="h"><path fill="#fff" d="M522 188H-82v47h604z"/></clipPath><clipPath id="l"><path fill="#fff" d="M-165-212h344v400h-344z"/></clipPath><clipPath id="m"><path fill="#fff" d="M-122-42h604V5h-604z"/></clipPath><clipPath id="n"><path fill="#fff" d="M-122 4h604v47h-604z"/></clipPath><clipPath id="o"><path fill="#fff" d="M-122 50h604v47h-604z"/></clipPath><clipPath id="p"><path fill="#fff" d="M-122 96h604v47h-604z"/></clipPath><clipPath id="q"><path fill="#fff" d="M-122 142h604v47h-604z"/></clipPath><clipPath id="r"><path fill="#fff" d="M-122 188h604v47h-604z"/></clipPath><clipPath id="w"><path d="M130 13c0-6.627 5.373-12 12-12h116c6.627 0 12 5.373 12 12v163c0 6.627-5.373 12-12 12H142c-6.627 0-12-5.373-12-12z" fill="#fff"/></clipPath><linearGradient id="i" x1="163" y1="298" x2="363" y2="375" gradientUnits="userSpaceOnUse"><stop stop-color="#fff"/><stop offset="1" stop-color="#fff" stop-opacity="0"/></linearGradient><linearGradient id="j" x1="206" y1="400" x2="205" y2="338" gradientUnits="userSpaceOnUse"><stop stop-color="#fff"/><stop offset="1" stop-color="#fff" stop-opacity="0"/></linearGradient><linearGradient id="k" x1="187" y1="285" x2="197" y2="189" gradientUnits="userSpaceOnUse"><stop stop-color="#fff" stop-opacity="0"/><stop offset="1" stop-color="#fff"/></linearGradient><linearGradient id="s" x1="159" y1="282" x2="363" y2="375" gradientUnits="userSpaceOnUse"><stop stop-color="#fff"/><stop offset="1" stop-color="#fff" stop-opacity="0"/></linearGradient><linearGradient id="t" x1="206" y1="400" x2="205" y2="338" gradientUnits="userSpaceOnUse"><stop stop-color="#fff"/><stop offset="1" stop-color="#fff" stop-opacity="0"/></linearGradient><linearGradient id="u" x1="187" y1="285" x2="197" y2="189" gradientUnits="userSpaceOnUse"><stop stop-color="#fff" stop-opacity="0"/><stop offset="1" stop-color="#fff"/></linearGradient><linearGradient id="y" x1="200" y1="9" x2="200" y2="149" gradientUnits="userSpaceOnUse"><stop stop-color="#E6E6E6"/><stop offset="1" stop-color="#D8D8D8"/></linearGradient><linearGradient id="B" x1="162" y1="168" x2="162" y2="180" gradientUnits="userSpaceOnUse"><stop stop-color="#E6E6E6"/><stop offset="1" stop-color="#D8D8D8"/></linearGradient><linearGradient id="E" x1="183" y1="153" x2="183" y2="165" gradientUnits="userSpaceOnUse"><stop stop-color="#E6E6E6"/><stop offset="1" stop-color="#D8D8D8"/></linearGradient><filter id="v" x="102" y="-5" width="196" height="243" filterUnits="userSpaceOnUse" color-interpolation-filters="sRGB"><feFlood flood-opacity="0" result="BackgroundImageFix"/><feColorMatrix in="SourceAlpha" values="0 0 0 0 0 0 0 0 0 0 0 0 0 0 0 0 0 0 127 0" result="hardAlpha"/><feMorphology radius="20" in="SourceAlpha" result="effect1_dropShadow_11854_77905"/><feOffset dy="22"/><feGaussianBlur stdDeviation="24"/><feComposite in2="hardAlpha" operator="out"/><feColorMatrix values="0 0 0 0 0 0 0 0 0 0 0 0 0 0 0 0 0 0 0.2 0"/><feBlend in2="BackgroundImageFix" result="effect1_dropShadow_11854_77905"/><feColorMatrix in="SourceAlpha" values="0 0 0 0 0 0 0 0 0 0 0 0 0 0 0 0 0 0 127 0" result="hardAlpha"/><feOffset dy="2"/><feGaussianBlur stdDeviation="2"/><feComposite in2="hardAlpha" operator="out"/><feColorMatrix values="0 0 0 0 0 0 0 0 0 0 0 0 0 0 0 0 0 0 0.1 0"/><feBlend in2="effect1_dropShadow_11854_77905" result="effect2_dropShadow_11854_77905"/><feColorMatrix in="SourceAlpha" values="0 0 0 0 0 0 0 0 0 0 0 0 0 0 0 0 0 0 127 0" result="hardAlpha"/><feMorphology radius="1" operator="dilate" in="SourceAlpha" result="effect3_dropShadow_11854_77905"/><feOffset/><feComposite in2="hardAlpha" operator="out"/><feColorMatrix values="0 0 0 0 0 0 0 0 0 0 0 0 0 0 0 0 0 0 0.05 0"/><feBlend in2="effect2_dropShadow_11854_77905" result="effect3_dropShadow_11854_77905"/><feBlend in="SourceGraphic" in2="effect3_dropShadow_11854_77905" result="shape"/></filter><filter id="x" x="102" y="-15" width="196" height="212" filterUnits="userSpaceOnUse" color-interpolation-filters="sRGB"><feFlood flood-opacity="0" result="BackgroundImageFix"/><feColorMatrix in="SourceAlpha" values="0 0 0 0 0 0 0 0 0 0 0 0 0 0 0 0 0 0 127 0" result="hardAlpha"/><feMorphology radius="20" in="SourceAlpha" result="effect1_dropShadow_11854_77905"/><feOffset dy="12"/><feGaussianBlur stdDeviation="28"/><feComposite in2="hardAlpha" operator="out"/><feColorMatrix values="0 0 0 0 0 0 0 0 0 0 0 0 0 0 0 0 0 0 0.15 0"/><feBlend in2="BackgroundImageFix" result="effect1_dropShadow_11854_77905"/><feColorMatrix in="SourceAlpha" values="0 0 0 0 0 0 0 0 0 0 0 0 0 0 0 0 0 0 127 0" result="hardAlpha"/><feOffset dy="2"/><feGaussianBlur stdDeviation="2"/><feComposite in2="hardAlpha" operator="out"/><feColorMatrix values="0 0 0 0 0 0 0 0 0 0 0 0 0 0 0 0 0 0 0.04 0"/><feBlend in2="effect1_dropShadow_11854_77905" result="effect2_dropShadow_11854_77905"/><feBlend in="SourceGraphic" in2="effect2_dropShadow_11854_77905" result="shape"/></filter><filter id="A" x="134" y="166" width="56" height="20" filterUnits="userSpaceOnUse" color-interpolation-filters="sRGB"><feFlood flood-opacity="0" result="BackgroundImageFix"/><feColorMatrix in="SourceAlpha" values="0 0 0 0 0 0 0 0 0 0 0 0 0 0 0 0 0 0 127 0" result="hardAlpha"/><feOffset dy="2"/><feGaussianBlur stdDeviation="2"/><feComposite in2="hardAlpha" operator="out"/><feColorMatrix values="0 0 0 0 0 0 0 0 0 0 0 0 0 0 0 0 0 0 0.04 0"/><feBlend in2="BackgroundImageFix" result="effect1_dropShadow_11854_77905"/><feBlend in="SourceGraphic" in2="effect1_dropShadow_11854_77905" result="shape"/></filter><filter id="D" x="134" y="151" width="98" height="20" filterUnits="userSpaceOnUse" color-interpolation-filters="sRGB"><feFlood flood-opacity="0" result="BackgroundImageFix"/><feColorMatrix in="SourceAlpha" values="0 0 0 0 0 0 0 0 0 0 0 0 0 0 0 0 0 0 127 0" result="hardAlpha"/><feOffset dy="2"/><feGaussianBlur stdDeviation="2"/><feComposite in2="hardAlpha" operator="out"/><feColorMatrix values="0 0 0 0 0 0 0 0 0 0 0 0 0 0 0 0 0 0 0.04 0"/><feBlend in2="BackgroundImageFix" result="effect1_dropShadow_11854_77905"/><feBlend in="SourceGraphic" in2="effect1_dropShadow_11854_77905" result="shape"/></filter></defs></svg>
