<svg width="132" height="185" viewBox="0 0 132 185" xmlns="http://www.w3.org/2000/svg"><g fill="none" fill-rule="evenodd"><rect fill="#F2F0F0" width="132" height="185" rx="6"/><rect fill="#FFF" x="10" y="10" width="112" height="145" rx="4"/><rect fill="#FFF" x="10" y="160" width="48" height="6" rx="2"/><rect fill="#FFF" x="10" y="169" width="58" height="6" rx="2"/><path d="M57.534 62.007c2.972.111 5.503 1.524 7.193 2.763.474.348.899.695 1.269 1.017.368-.323.795-.67 1.27-1.018 1.694-1.239 4.229-2.651 7.2-2.762L74.84 62l.34.005c2.83.075 5.698 1.101 7.798 3.21 2.162 2.172 3.315 5.298 2.958 9.135l-.041.39c-.24 2.003-1.204 4.33-2.435 6.634l-.233.432c-1.373 2.503-3.157 5.181-5.048 7.734l-.647.864-.658.857-.664.846-.334.42-.67.826-.67.809a95.47 95.47 0 0 1-.336.397l-.667.78-.661.754c-.22.247-.438.49-.654.728l-.642.698c-1.485 1.593-2.862 2.922-3.985 3.827l-.237.187-.145.104a2.223 2.223 0 0 1-2.436 0l-.145-.104-.236-.187c-.744-.6-1.6-1.385-2.523-2.31l-.626-.637-.32-.333-.65-.693-.664-.727a81.018 81.018 0 0 1-.337-.375l-.679-.771-.342-.396-.688-.81c-.23-.273-.46-.55-.69-.83l-.69-.85-.687-.865a99.512 99.512 0 0 1-.341-.438l-.677-.882-.667-.89c-1.888-2.553-3.67-5.231-5.041-7.734-1.26-2.3-2.283-4.645-2.611-6.686l-.054-.383-.04-.386c-.358-3.837.795-6.963 2.957-9.134 2.1-2.11 4.969-3.136 7.799-3.211l.34-.005.373.007Z" fill="#F2F0F0" fill-rule="nonzero"/></g></svg>
