<svg xmlns="http://www.w3.org/2000/svg" viewBox="0 0 20 20">
  <g fill="currentColor">
    <path d="M7.474 5.053H6.21a.315.315 0 100 .631h.91a1.371 1.371 0 01-1.332 1.053A1.37 1.37 0 014.42 5.368a1.371 1.371 0 012.274-1.026.316.316 0 00.418-.474 1.999 1.999 0 10.677 1.5.314.314 0 00-.315-.315zm7.579-3.369c-1.103 0-2 .897-2 2s.897 2 2 2c1.102 0 2-.897 2-2s-.898-2-2-2zm0 3.369a1.37 1.37 0 01-1.369-1.369 1.37 1.37 0 011.369-1.368 1.37 1.37 0 011.368 1.368 1.37 1.37 0 01-1.368 1.369z"/>
    <path d="M18.86 5.362c.186-.448.298-.876.298-1.257A4.11 4.11 0 0015.053 0c-.705 0-1.368.178-1.948.492A9.999 9.999 0 0010 0a9.934 9.934 0 00-7.071 2.929A9.934 9.934 0 000 10a9.934 9.934 0 002.929 7.071A9.934 9.934 0 0010 20a9.934 9.934 0 007.071-2.929A9.934 9.934 0 0020 10a10.01 10.01 0 00-1.14-4.638zM15.053.632a3.477 3.477 0 013.473 3.473c0 1.503-2.328 4.246-3.473 5.443-1.146-1.196-3.474-3.94-3.474-5.443A3.477 3.477 0 0115.053.632zM.632 10C.632 4.834 4.834.632 10 .632a9.4 9.4 0 012.43.318 4.097 4.097 0 00-1.483 3.155c0 .365.103.773.275 1.2L.948 12.416A9.337 9.337 0 01.632 10zM10 19.368a9.37 9.37 0 01-7.886-4.315L4.84 13.06a.312.312 0 00.037-.473l-.005-.004a.31.31 0 00-.405-.032L1.79 14.508a9.282 9.282 0 01-.648-1.457L11.49 5.887c.183.354.4.714.636 1.067l-6.409 4.683a.313.313 0 00-.036.474l.004.004c.11.11.281.123.406.032l1.264-.924 5.41 7.729a9.356 9.356 0 01-2.765.416zm3.385-.632l-5.52-7.886 1.189-.869 5.673 8.104c-.427.251-.876.47-1.342.65zm1.876-.988l-5.697-8.14 2.923-2.136a25.79 25.79 0 002.342 2.751.316.316 0 00.447 0c.117-.117 2.162-2.182 3.235-4.141a9.367 9.367 0 01-3.25 11.666z"/>
  </g>
</svg>
