<svg xmlns="http://www.w3.org/2000/svg" width="18" height="18" fill="currentColor"><path fill-rule="evenodd" d="M9 4.313a2.813 2.813 0 1 0 0 5.625 2.813 2.813 0 0 0 0-5.626ZM7.312 7.124a1.688 1.688 0 1 1 3.376 0 1.688 1.688 0 0 1-3.376 0Z" clip-rule="evenodd"/><path fill-rule="evenodd" d="M10.245 15.583c-.247.284-.494.556-.752.818a.69.69 0 0 1-.986 0 17.342 17.342 0 0 1-.752-.818 36.448 36.448 0 0 1-1.834-2.29c-.666-.908-1.342-1.935-1.854-2.957-.505-1.01-.88-2.07-.88-3.032 0-3.809 2.981-5.992 5.813-5.992s5.813 2.183 5.813 5.992c0 .962-.375 2.023-.88 3.032-.512 1.022-1.188 2.049-1.854 2.958a36.464 36.464 0 0 1-1.834 2.289Zm-5.932-8.28c0-3.113 2.4-4.865 4.687-4.865 2.287 0 4.688 1.752 4.688 4.866 0 .7-.283 1.573-.761 2.529-.473.944-1.11 1.915-1.756 2.796A35.32 35.32 0 0 1 9 15.294a35.335 35.335 0 0 1-2.171-2.665c-.646-.881-1.283-1.852-1.756-2.796-.478-.956-.76-1.829-.76-2.53Z" clip-rule="evenodd"/></svg>

