<svg width="26" height="33" viewBox="0 0 26 33" fill="none" xmlns="http://www.w3.org/2000/svg">
<path d="M14.928 31.3919C14.546 31.838 14.1634 32.2637 13.7627 32.6754C13.3414 33.1082 12.6586 33.1082 12.2373 32.6754C11.8366 32.2637 11.454 31.838 11.072 31.3919C10.2993 30.4895 9.26724 29.229 8.23314 27.8C7.20118 26.374 6.15446 24.7627 5.36235 23.1597C4.57924 21.575 4 19.9101 4 18.4007C4 12.425 8.61534 9 13 9C17.3847 9 22 12.425 22 18.4007C22 19.9101 21.4208 21.575 20.6376 23.1597C19.8455 24.7627 18.7988 26.374 17.7669 27.8C16.7328 29.229 15.7007 30.4895 14.928 31.3919Z" fill="black"/>
<circle cx="13" cy="18" r="3" fill="white"/>
</svg>
