<svg xmlns="http://www.w3.org/2000/svg" viewBox="0 0 513.32 513.32">
  <path d="M256.66 257.32c-135.28 0-245.33 110.06-245.33 245.33 0 5.888 4.779 10.667 10.667 10.667s10.667-4.779 10.667-10.667c0-123.52 100.48-224 224-224s224 100.48 224 224c0 5.888 4.779 10.667 10.667 10.667s10.667-4.779 10.667-10.667c-.001-135.3-110.06-245.33-245.34-245.33zm0-257.32c-64.683 0-117.33 52.629-117.33 117.33s52.651 117.33 117.33 117.33 117.33-52.629 117.33-117.33S321.34 0 256.66 0zm0 213.33c-52.928 0-96-43.072-96-96s43.072-96 96-96 96 43.072 96 96-43.072 96-96 96z"/>
</svg>
